<svg width="261" height="143" viewBox="0 0 261 143" fill="none" xmlns="http://www.w3.org/2000/svg">
<path d="M67.64 140H49.16V119.98H0.0200002V104.86L49.16 39.9H67.64V104.86H80.38V119.98H67.64V140ZM49.16 63.98L18.08 104.86H49.16V63.98ZM130.302 126.7C136.275 126.7 140.895 123.62 144.162 117.46C147.429 111.207 149.062 102.06 149.062 90.02C149.062 77.8867 147.429 68.74 144.162 62.58C140.895 56.3267 136.275 53.2 130.302 53.2C124.422 53.2 119.802 56.3267 116.442 62.58C113.175 68.74 111.542 77.8867 111.542 90.02C111.542 102.06 113.175 111.207 116.442 117.46C119.802 123.62 124.422 126.7 130.302 126.7ZM130.302 142.24C122.462 142.24 115.695 140.187 110.002 136.08C104.402 131.973 100.062 126.047 96.9819 118.3C93.9952 110.46 92.5019 101.033 92.5019 90.02C92.5019 78.9133 93.9952 69.4867 96.9819 61.74C100.062 53.9 104.402 47.9267 110.002 43.82C115.695 39.7133 122.462 37.66 130.302 37.66C138.235 37.66 145.002 39.7133 150.602 43.82C156.295 47.9267 160.635 53.9 163.622 61.74C166.702 69.4867 168.242 78.9133 168.242 90.02C168.242 101.033 166.702 110.46 163.622 118.3C160.635 126.047 156.295 131.973 150.602 136.08C145.002 140.187 138.235 142.24 130.302 142.24ZM247.929 140H229.449V119.98H180.309V104.86L229.449 39.9H247.929V104.86H260.669V119.98H247.929V140ZM229.449 63.98L198.369 104.86H229.449V63.98Z" fill="#232325"/>
<path d="M88.2598 23.1422C88.3301 22.9922 88.4334 22.8627 88.5614 22.7641C88.6895 22.6655 88.8386 22.6006 88.9968 22.5745C89.1551 22.5484 89.318 22.562 89.4726 22.614C89.6271 22.6661 89.7689 22.7552 89.8866 22.8743C90.6502 23.6549 91.5942 24.2024 92.5448 24.5869C94.6596 25.4434 96.9646 25.5301 99.1214 24.9477L105.075 23.3401C105.581 23.2035 105.738 22.8373 105.697 22.3715C105.665 22.0747 105.558 21.7902 105.387 21.5475C105.216 21.3049 104.988 21.1132 104.726 20.9924C102.768 20.0572 101.127 18.4983 100.041 16.5424C98.9548 14.5864 98.4805 12.3354 98.6869 10.1164C98.8932 7.89743 99.7695 5.82618 101.188 4.2037C102.607 2.58122 104.495 1.49208 106.576 1.09458C110.954 0.24755 115.403 2.65511 117.464 6.76241C117.511 6.85607 117.582 6.93413 117.67 6.98719C117.757 7.04024 117.857 7.06602 117.956 7.06142C119.28 6.98998 120.595 6.82597 121.893 6.57049C121.977 6.55453 122.063 6.56061 122.145 6.58817C122.227 6.61573 122.301 6.66392 122.362 6.72846C122.423 6.79301 122.468 6.8719 122.494 6.95814C122.519 7.04438 122.524 7.13529 122.509 7.22279C122.064 9.74287 120.648 11.8329 119.285 13.3326C118.726 13.9424 118.288 14.6629 117.994 15.4548L117.974 15.5096C117.786 16.0233 117.793 16.5984 117.992 17.1193C118.191 17.6402 118.568 18.0682 119.047 18.3175C123.92 20.9282 125.625 24.076 126.391 26.9554C127.418 30.8046 126.294 34.5927 123.692 37.3868C117.453 44.0859 106.957 45.6042 101.626 44.9197C97.5425 44.3947 93.3497 42.7493 90.7793 39.3142C85.5203 32.2866 86.9178 26.0083 88.2598 23.1422ZM113.313 10.1823C113.639 10.0943 113.93 9.90577 114.15 9.64063C114.369 9.37548 114.506 9.0456 114.545 8.69269C114.584 8.33979 114.521 7.97972 114.366 7.65801C114.211 7.33631 113.97 7.06742 113.674 6.88534C113.377 6.70327 113.039 6.6162 112.701 6.63513C112.363 6.65407 112.04 6.77816 111.775 6.99172C111.509 7.20527 111.312 7.4987 111.209 7.8349C111.105 8.1711 111.1 8.53496 111.193 8.88047C111.318 9.34377 111.612 9.7412 112.009 9.98533C112.407 10.2295 112.876 10.3003 113.313 10.1823Z" fill="url(#paint0_linear_0_1)"/>
<defs>
<linearGradient id="paint0_linear_0_1" x1="125.518" y1="18.1557" x2="86.4284" y2="28.7108" gradientUnits="userSpaceOnUse">
<stop stop-color="#E25377"/>
<stop offset="0.490385" stop-color="#EEB902"/>
<stop offset="1" stop-color="#62B4FF"/>
</linearGradient>
</defs>
</svg>
