<svg width="300" height="245" viewBox="0 0 300 245" fill="none" xmlns="http://www.w3.org/2000/svg">
<rect width="300" height="245" rx="12" fill="white"/>
<rect width="300" height="245" rx="12" fill="url(#paint0_linear_0_1)" fill-opacity="0.4"/>
<g clip-path="url(#clip0_0_1)">
<path d="M222.704 85.9583C223.201 85.671 223.876 85.5096 224.58 85.5096C225.284 85.5096 225.959 85.671 226.456 85.9583L237.715 92.4583C238.212 92.7457 238.492 93.1353 238.492 93.5417C238.492 93.948 238.212 94.3377 237.715 94.625L226.456 101.125C225.959 101.412 225.284 101.574 224.58 101.574C223.876 101.574 223.201 101.412 222.704 101.125L211.445 94.625C210.948 94.3377 210.668 93.948 210.668 93.5417C210.668 93.1353 210.948 92.7457 211.445 92.4583L222.704 85.9583Z" stroke="white" stroke-opacity="0.61" stroke-width="2" stroke-linecap="round" stroke-linejoin="round"/>
<path d="M237.715 90.2917L233.962 92.4584" stroke="white" stroke-opacity="0.61" stroke-width="2" stroke-linecap="round" stroke-linejoin="round"/>
<path d="M230.209 85.9583L226.456 88.1249" stroke="white" stroke-opacity="0.61" stroke-width="2" stroke-linecap="round" stroke-linejoin="round"/>
<path d="M218.951 88.125L233.962 96.7917" stroke="white" stroke-opacity="0.61" stroke-width="2" stroke-linecap="round" stroke-linejoin="round"/>
<path d="M218.951 91.375L218.963 91.382" stroke="white" stroke-opacity="0.61" stroke-width="2" stroke-linecap="round" stroke-linejoin="round"/>
<path d="M221.773 93.0054L221.778 93.0079" stroke="white" stroke-opacity="0.61" stroke-width="2" stroke-linecap="round" stroke-linejoin="round"/>
<path d="M224.588 94.6304L224.592 94.6329" stroke="white" stroke-opacity="0.61" stroke-width="2" stroke-linecap="round" stroke-linejoin="round"/>
<path d="M227.408 96.2581L227.413 96.2606" stroke="white" stroke-opacity="0.61" stroke-width="2" stroke-linecap="round" stroke-linejoin="round"/>
<path d="M221.779 96.2581L221.784 96.2606" stroke="white" stroke-opacity="0.61" stroke-width="2" stroke-linecap="round" stroke-linejoin="round"/>
<path d="M216.145 93.0054L216.149 93.0079" stroke="white" stroke-opacity="0.61" stroke-width="2" stroke-linecap="round" stroke-linejoin="round"/>
<path d="M218.959 94.6304L218.963 94.6329" stroke="white" stroke-opacity="0.61" stroke-width="2" stroke-linecap="round" stroke-linejoin="round"/>
</g>
<g clip-path="url(#clip1_0_1)">
<path d="M91.6419 177.417C92.1395 177.704 92.4191 178.094 92.4191 178.5C92.4191 178.906 92.1395 179.296 91.6419 179.583C92.1395 179.296 92.8145 179.134 93.5183 179.134C94.2221 179.134 94.897 179.296 95.3947 179.583C94.897 179.296 94.6174 178.906 94.6174 178.5C94.6174 178.094 94.897 177.704 95.3947 177.417C94.897 177.704 94.2221 177.865 93.5183 177.865C92.8145 177.865 92.1395 177.704 91.6419 177.417ZM102.9 170.917C103.398 171.204 103.677 171.594 103.677 172C103.677 172.406 103.398 172.796 102.9 173.083C103.398 172.796 104.073 172.634 104.777 172.634C105.48 172.634 106.155 172.796 106.653 173.083C106.155 172.796 105.876 172.406 105.876 172C105.876 171.594 106.155 171.204 106.653 170.917C106.155 171.204 105.48 171.365 104.777 171.365C104.073 171.365 103.398 171.204 102.9 170.917ZM85.0745 173.625C86.5675 172.763 88.5923 172.279 90.7037 172.279C92.815 172.279 94.8399 172.763 96.3329 173.625C94.8399 172.763 94.0012 171.594 94.0012 170.375C94.0012 169.156 94.8399 167.987 96.3329 167.125C94.8399 167.987 92.815 168.471 90.7037 168.471C88.5923 168.471 86.5675 167.987 85.0745 167.125C86.5675 167.987 87.4062 169.156 87.4062 170.375C87.4062 171.594 86.5675 172.763 85.0745 173.625Z" stroke="white" stroke-opacity="0.51" stroke-width="2" stroke-linecap="round" stroke-linejoin="round"/>
</g>
<g clip-path="url(#clip2_0_1)">
<path d="M86.8892 8.50008C87.3869 8.21276 88.0618 8.05135 88.7656 8.05135C89.4694 8.05135 90.1444 8.21276 90.642 8.50008L103.777 16.0834C104.274 16.3707 104.554 16.7604 104.554 17.1667C104.554 17.5731 104.274 17.9628 103.777 18.2501L95.333 23.1251C94.8353 23.4124 94.1604 23.5738 93.4566 23.5738C92.7528 23.5738 92.0779 23.4124 91.5802 23.1251L78.4455 15.5417C77.9478 15.2544 77.6683 14.8647 77.6683 14.4584C77.6683 14.0521 77.9478 13.6624 78.4455 13.3751L86.8892 8.50008Z" stroke="white" stroke-opacity="0.49" stroke-width="2" stroke-linecap="round" stroke-linejoin="round"/>
<path d="M93.4562 10.1249L95.3326 9.04159C95.8302 8.75427 96.5052 8.59285 97.209 8.59285C97.9128 8.59285 98.5877 8.75427 99.0854 9.04159L102.838 11.2083C103.336 11.4956 103.615 11.8853 103.615 12.2916C103.615 12.6979 103.336 13.0876 102.838 13.3749L100.962 14.4583" stroke="white" stroke-opacity="0.49" stroke-width="2" stroke-linecap="round" stroke-linejoin="round"/>
<path d="M92.5176 15L92.5089 15.005" stroke="white" stroke-opacity="0.49" stroke-width="2" stroke-linecap="round" stroke-linejoin="round"/>
<path d="M83.1348 10.6667C84.4341 12.9408 86.6385 15.0074 89.5713 16.7006C92.5041 18.3938 96.0835 19.6666 100.022 20.4167" stroke="white" stroke-opacity="0.49" stroke-width="2" stroke-linecap="round" stroke-linejoin="round"/>
</g>
<path d="M361.001 -98.4063L-441.154 364.718M427.847 -59.8126L-374.308 403.312M494.693 -21.2189L-307.462 441.905M561.539 17.3748L-240.616 480.499M227.308 -98.4063L561.539 94.5621M160.462 -59.8126L494.693 133.156M93.6156 -21.2189L427.847 171.75M26.7694 17.3748L361.001 210.343M-40.0769 55.9685L294.154 248.937M-106.923 94.5621L227.308 287.531M-173.769 133.156L160.462 326.124M-240.616 171.75L93.6156 364.718M-307.462 210.343L26.7694 403.312M-374.308 248.937L-40.0769 441.905M-441.154 287.531L-106.923 480.499M294.154 -137L-508 326.124L-173.769 519.093L628.385 55.9685L294.154 -137Z" stroke="white" stroke-opacity="0.47" stroke-width="2"/>
<path d="M225.579 15.1249H218.073V19.4583" stroke="white" stroke-opacity="0.6" stroke-width="2" stroke-linecap="round" stroke-linejoin="round"/>
<path d="M234.961 20.5417V24.8751H227.455" stroke="white" stroke-opacity="0.6" stroke-width="2" stroke-linecap="round" stroke-linejoin="round"/>
<path d="M235.899 16.7499L217.135 23.2499" stroke="white" stroke-opacity="0.6" stroke-width="2" stroke-linecap="round" stroke-linejoin="round"/>
<defs>
<linearGradient id="paint0_linear_0_1" x1="-14.4928" y1="122.5" x2="225.742" y2="116.299" gradientUnits="userSpaceOnUse">
<stop stop-color="#F4B8B8"/>
<stop offset="0.447115" stop-color="#E3B3EA"/>
<stop offset="1" stop-color="#C5C9F1"/>
</linearGradient>
<clipPath id="clip0_0_1">
<rect width="26" height="26" fill="white" transform="matrix(0.866025 0.5 -0.866025 0.5 225.518 80)"/>
</clipPath>
<clipPath id="clip1_0_1">
<rect width="26" height="26" fill="white" transform="matrix(0.866025 0.5 -0.866025 0.5 93.5176 159)"/>
</clipPath>
<clipPath id="clip2_0_1">
<rect width="26" height="26" fill="white" transform="matrix(0.866025 0.5 -0.866025 0.5 92.5176 2)"/>
</clipPath>
</defs>
</svg>
