<svg width="249" height="157" viewBox="0 0 249 157" fill="none" xmlns="http://www.w3.org/2000/svg">
<g filter="url(#filter0_f_1451_5099)">
<path d="M128.5 42L156.003 126.645H245.004L173.001 178.959L200.504 263.605L128.5 211.291L56.4963 263.605L83.9993 178.959L11.9956 126.645H100.997L128.5 42Z" fill="#FF0DB1"/>
</g>
<g filter="url(#filter1_f_1451_5099)">
<path d="M22.5 -117L50.003 -32.3546H139.004L67.0007 19.9592L94.5037 104.605L22.5 52.2908L-49.5037 104.605L-22.0007 19.9592L-94.0044 -32.3546H-5.00296L22.5 -117Z" fill="#EEFF02"/>
</g>
<g filter="url(#filter2_f_1451_5099)">
<path d="M213.5 -60L233.369 1.15199L297.669 1.152L245.65 38.946L265.519 100.098L213.5 62.304L161.481 100.098L181.35 38.946L129.331 1.152L193.631 1.15199L213.5 -60Z" fill="#0A4BFF"/>
</g>
<defs>
<filter id="filter0_f_1451_5099" x="-188.005" y="-158" width="633.01" height="621.604" filterUnits="userSpaceOnUse" color-interpolation-filters="sRGB">
<feFlood flood-opacity="0" result="BackgroundImageFix"/>
<feBlend mode="normal" in="SourceGraphic" in2="BackgroundImageFix" result="shape"/>
<feGaussianBlur stdDeviation="100" result="effect1_foregroundBlur_1451_5099"/>
</filter>
<filter id="filter1_f_1451_5099" x="-294.005" y="-317" width="633.01" height="621.604" filterUnits="userSpaceOnUse" color-interpolation-filters="sRGB">
<feFlood flood-opacity="0" result="BackgroundImageFix"/>
<feBlend mode="normal" in="SourceGraphic" in2="BackgroundImageFix" result="shape"/>
<feGaussianBlur stdDeviation="100" result="effect1_foregroundBlur_1451_5099"/>
</filter>
<filter id="filter2_f_1451_5099" x="9.33105" y="-180" width="408.338" height="400.098" filterUnits="userSpaceOnUse" color-interpolation-filters="sRGB">
<feFlood flood-opacity="0" result="BackgroundImageFix"/>
<feBlend mode="normal" in="SourceGraphic" in2="BackgroundImageFix" result="shape"/>
<feGaussianBlur stdDeviation="60" result="effect1_foregroundBlur_1451_5099"/>
</filter>
</defs>
</svg>
