<svg width="763" height="157" viewBox="0 0 763 157" fill="none" xmlns="http://www.w3.org/2000/svg">
<g filter="url(#filter0_f_1451_5100)">
<path d="M-12.5 -119L15.003 -34.3546H104.004L32.0007 17.9592L59.5037 102.605L-12.5 50.2908L-84.5037 102.605L-57.0007 17.9592L-129.004 -34.3546H-40.003L-12.5 -119Z" fill="#EEB902"/>
</g>
<g filter="url(#filter1_f_1451_5100)">
<path d="M348.5 -98L376.003 -13.3546H465.004L393.001 38.9592L420.504 123.605L348.5 71.2908L276.496 123.605L303.999 38.9592L231.996 -13.3546H320.997L348.5 -98Z" fill="#F28FD2"/>
</g>
<g filter="url(#filter2_f_1451_5100)">
<path d="M773.5 -7L801.003 77.6454H890.004L818.001 129.959L845.504 214.605L773.5 162.291L701.496 214.605L728.999 129.959L656.996 77.6454H745.997L773.5 -7Z" fill="#62B4FF"/>
</g>
<defs>
<filter id="filter0_f_1451_5100" x="-429.005" y="-419" width="833.01" height="821.604" filterUnits="userSpaceOnUse" color-interpolation-filters="sRGB">
<feFlood flood-opacity="0" result="BackgroundImageFix"/>
<feBlend mode="normal" in="SourceGraphic" in2="BackgroundImageFix" result="shape"/>
<feGaussianBlur stdDeviation="150" result="effect1_foregroundBlur_1451_5100"/>
</filter>
<filter id="filter1_f_1451_5100" x="-68.0049" y="-398" width="833.01" height="821.604" filterUnits="userSpaceOnUse" color-interpolation-filters="sRGB">
<feFlood flood-opacity="0" result="BackgroundImageFix"/>
<feBlend mode="normal" in="SourceGraphic" in2="BackgroundImageFix" result="shape"/>
<feGaussianBlur stdDeviation="150" result="effect1_foregroundBlur_1451_5100"/>
</filter>
<filter id="filter2_f_1451_5100" x="356.995" y="-307" width="833.01" height="821.604" filterUnits="userSpaceOnUse" color-interpolation-filters="sRGB">
<feFlood flood-opacity="0" result="BackgroundImageFix"/>
<feBlend mode="normal" in="SourceGraphic" in2="BackgroundImageFix" result="shape"/>
<feGaussianBlur stdDeviation="150" result="effect1_foregroundBlur_1451_5100"/>
</filter>
</defs>
</svg>
