<svg width="15" height="16" viewBox="0 0 15 16" fill="none" xmlns="http://www.w3.org/2000/svg">
<path d="M1.30731 6.42547C1.34406 6.38202 1.38993 6.34832 1.44122 6.32709C1.49251 6.30585 1.54778 6.29766 1.6026 6.30319C1.65742 6.30872 1.71025 6.3278 1.75683 6.35891C1.80342 6.39002 1.84247 6.43228 1.87083 6.48229C2.05419 6.80959 2.31822 7.07568 2.59904 7.28833C3.22373 7.76177 3.98042 7.99694 4.74786 7.99694L6.86635 7.99694C7.04633 7.99694 7.13138 7.8896 7.15924 7.73137C7.17526 7.63012 7.16528 7.52617 7.13036 7.4304C7.09544 7.33464 7.03686 7.2506 6.96075 7.18707C6.39522 6.70158 5.99054 6.03761 5.80552 5.29167C5.62049 4.54573 5.66478 3.7567 5.93194 3.03927C6.19909 2.32183 6.6752 1.71338 7.29105 1.30235C7.9069 0.891319 8.6304 0.699133 9.35639 0.753725C10.884 0.864825 12.144 2.06172 12.4595 3.60843C12.4668 3.64372 12.4836 3.67603 12.5078 3.70145C12.5321 3.72687 12.5627 3.74432 12.5961 3.7517C13.0415 3.84656 13.4924 3.90996 13.9458 3.94147C13.9749 3.94365 14.003 3.9534 14.0277 3.96987C14.0524 3.98634 14.0728 4.00901 14.0872 4.03586C14.1016 4.06272 14.1096 4.09294 14.1103 4.12382C14.111 4.15471 14.1046 4.18531 14.0915 4.2129C13.7182 5.00884 13.0616 5.57522 12.4751 5.95052C12.2354 6.10275 12.0255 6.30245 11.857 6.53875L11.8454 6.55511C11.7372 6.70869 11.6878 6.89998 11.7072 7.09056C11.7266 7.28114 11.8133 7.45687 11.95 7.58246C13.3323 8.88471 13.6158 10.0814 13.6119 11.1049C13.608 12.4734 12.896 13.6291 11.7828 14.3227C9.11374 15.9858 5.49672 15.5493 3.7898 14.8449C2.48269 14.3051 1.2395 13.3839 0.694647 12.0145C-0.420131 9.21285 0.605594 7.25583 1.30731 6.42547ZM10.7768 4.37095C10.8928 4.37096 11.0062 4.3345 11.1027 4.26621C11.1992 4.19791 11.2744 4.10083 11.3188 3.98724C11.3632 3.87366 11.3748 3.74868 11.3522 3.62809C11.3295 3.50751 11.2737 3.39675 11.1916 3.30981C11.1096 3.22287 11.0051 3.16367 10.8913 3.13968C10.7775 3.11569 10.6596 3.128 10.5524 3.17504C10.4452 3.22209 10.3536 3.30177 10.2891 3.40399C10.2247 3.50621 10.1903 3.6264 10.1903 3.74934C10.1903 3.91419 10.2521 4.0723 10.3621 4.18887C10.4721 4.30544 10.6212 4.37094 10.7768 4.37095Z" fill="white"/>
</svg>
