<svg width="300" height="245" viewBox="0 0 300 245" fill="none" xmlns="http://www.w3.org/2000/svg">
<g clip-path="url(#clip0_0_1)">
<path d="M222.704 85.9583C223.201 85.671 223.876 85.5096 224.58 85.5096C225.284 85.5096 225.959 85.671 226.456 85.9583L237.715 92.4583C238.212 92.7457 238.492 93.1353 238.492 93.5417C238.492 93.948 238.212 94.3377 237.715 94.625L226.456 101.125C225.959 101.412 225.284 101.574 224.58 101.574C223.876 101.574 223.201 101.412 222.704 101.125L211.445 94.625C210.948 94.3377 210.668 93.948 210.668 93.5417C210.668 93.1353 210.948 92.7457 211.445 92.4583L222.704 85.9583Z" stroke="#FEE1B9" stroke-width="2" stroke-linecap="round" stroke-linejoin="round"/>
<path d="M237.715 90.2915L233.962 92.4582" stroke="#FEE1B9" stroke-width="2" stroke-linecap="round" stroke-linejoin="round"/>
<path d="M230.209 85.9585L226.456 88.1252" stroke="#FEE1B9" stroke-width="2" stroke-linecap="round" stroke-linejoin="round"/>
<path d="M218.951 88.125L233.962 96.7917" stroke="#FEE1B9" stroke-width="2" stroke-linecap="round" stroke-linejoin="round"/>
<path d="M218.951 91.375L218.963 91.382" stroke="#FEE1B9" stroke-width="2" stroke-linecap="round" stroke-linejoin="round"/>
<path d="M221.773 93.0054L221.778 93.0079" stroke="#FEE1B9" stroke-width="2" stroke-linecap="round" stroke-linejoin="round"/>
<path d="M224.588 94.6304L224.592 94.6329" stroke="#FEE1B9" stroke-width="2" stroke-linecap="round" stroke-linejoin="round"/>
<path d="M227.408 96.2583L227.413 96.2608" stroke="#FEE1B9" stroke-width="2" stroke-linecap="round" stroke-linejoin="round"/>
<path d="M221.779 96.2583L221.784 96.2608" stroke="#FEE1B9" stroke-width="2" stroke-linecap="round" stroke-linejoin="round"/>
<path d="M216.145 93.0054L216.149 93.0079" stroke="#FEE1B9" stroke-width="2" stroke-linecap="round" stroke-linejoin="round"/>
<path d="M218.959 94.6304L218.963 94.6329" stroke="#FEE1B9" stroke-width="2" stroke-linecap="round" stroke-linejoin="round"/>
</g>
<g clip-path="url(#clip1_0_1)">
<path d="M91.6419 177.417C92.1395 177.704 92.4191 178.094 92.4191 178.5C92.4191 178.906 92.1395 179.296 91.6419 179.583C92.1395 179.296 92.8145 179.134 93.5183 179.134C94.2221 179.134 94.897 179.296 95.3947 179.583C94.897 179.296 94.6174 178.906 94.6174 178.5C94.6174 178.094 94.897 177.704 95.3947 177.417C94.897 177.704 94.2221 177.865 93.5183 177.865C92.8145 177.865 92.1395 177.704 91.6419 177.417ZM102.9 170.917C103.398 171.204 103.677 171.594 103.677 172C103.677 172.406 103.398 172.796 102.9 173.083C103.398 172.796 104.073 172.634 104.777 172.634C105.48 172.634 106.155 172.796 106.653 173.083C106.155 172.796 105.876 172.406 105.876 172C105.876 171.594 106.155 171.204 106.653 170.917C106.155 171.204 105.48 171.365 104.777 171.365C104.073 171.365 103.398 171.204 102.9 170.917ZM85.0745 173.625C86.5675 172.763 88.5923 172.279 90.7037 172.279C92.815 172.279 94.8399 172.763 96.3329 173.625C94.8399 172.763 94.0012 171.594 94.0012 170.375C94.0012 169.156 94.8399 167.987 96.3329 167.125C94.8399 167.987 92.815 168.471 90.7037 168.471C88.5923 168.471 86.5675 167.987 85.0745 167.125C86.5675 167.987 87.4062 169.156 87.4062 170.375C87.4062 171.594 86.5675 172.763 85.0745 173.625Z" stroke="#FEE1B9" stroke-width="2" stroke-linecap="round" stroke-linejoin="round"/>
</g>
<g clip-path="url(#clip2_0_1)">
<path d="M86.8892 8.49984C87.3869 8.21252 88.0618 8.05111 88.7656 8.05111C89.4694 8.05111 90.1444 8.21252 90.642 8.49984L103.777 16.0832C104.274 16.3705 104.554 16.7602 104.554 17.1665C104.554 17.5728 104.274 17.9625 103.777 18.2498L95.333 23.1248C94.8353 23.4122 94.1604 23.5736 93.4566 23.5736C92.7528 23.5736 92.0779 23.4122 91.5802 23.1248L78.4455 15.5415C77.9478 15.2542 77.6683 14.8645 77.6683 14.4582C77.6683 14.0518 77.9478 13.6622 78.4455 13.3748L86.8892 8.49984Z" stroke="#FEE1B9" stroke-width="2" stroke-linecap="round" stroke-linejoin="round"/>
<path d="M93.4562 10.1252L95.3326 9.04183C95.8302 8.75451 96.5052 8.5931 97.209 8.5931C97.9128 8.5931 98.5877 8.75451 99.0854 9.04183L102.838 11.2085C103.336 11.4958 103.615 11.8855 103.615 12.2918C103.615 12.6982 103.336 13.0878 102.838 13.3752L100.962 14.4585" stroke="#FEE1B9" stroke-width="2" stroke-linecap="round" stroke-linejoin="round"/>
<path d="M92.5176 15L92.5089 15.005" stroke="#FEE1B9" stroke-width="2" stroke-linecap="round" stroke-linejoin="round"/>
<path d="M83.1348 10.6665C84.4341 12.9406 86.6385 15.0071 89.5713 16.7004C92.5041 18.3936 96.0835 19.6664 100.022 20.4165" stroke="#FEE1B9" stroke-width="2" stroke-linecap="round" stroke-linejoin="round"/>
</g>
<path d="M361.001 -98.4063L-441.154 364.718M427.847 -59.8126L-374.308 403.312M494.693 -21.2189L-307.462 441.905M561.539 17.3748L-240.616 480.499M227.308 -98.4063L561.539 94.5621M160.462 -59.8126L494.693 133.156M93.6156 -21.2189L427.847 171.75M26.7694 17.3748L361.001 210.343M-40.0769 55.9685L294.154 248.937M-106.923 94.5621L227.308 287.531M-173.769 133.156L160.462 326.124M-240.616 171.75L93.6156 364.718M-307.462 210.343L26.7694 403.312M-374.308 248.937L-40.0769 441.905M-441.154 287.531L-106.923 480.499M294.154 -137L-508 326.124L-173.769 519.093L628.385 55.9685L294.154 -137Z" stroke="#8E521E" stroke-opacity="0.05" stroke-width="2"/>
<path d="M225.579 15.1252H218.073V19.4585" stroke="#FFAE57" stroke-opacity="0.3" stroke-width="2" stroke-linecap="round" stroke-linejoin="round"/>
<path d="M234.961 20.5415V24.8748H227.455" stroke="#FFAE57" stroke-opacity="0.3" stroke-width="2" stroke-linecap="round" stroke-linejoin="round"/>
<path d="M235.899 16.7502L217.135 23.2502" stroke="#FFAE57" stroke-opacity="0.3" stroke-width="2" stroke-linecap="round" stroke-linejoin="round"/>
<defs>
<clipPath id="clip0_0_1">
<rect width="26" height="26" fill="white" transform="matrix(0.866025 0.5 -0.866025 0.5 225.518 80)"/>
</clipPath>
<clipPath id="clip1_0_1">
<rect width="26" height="26" fill="white" transform="matrix(0.866025 0.5 -0.866025 0.5 93.5176 159)"/>
</clipPath>
<clipPath id="clip2_0_1">
<rect width="26" height="26" fill="white" transform="matrix(0.866025 0.5 -0.866025 0.5 92.5176 2)"/>
</clipPath>
</defs>
</svg>
