<svg width="1000" height="80" viewBox="0 0 1000 80" fill="none" xmlns="http://www.w3.org/2000/svg">
<g clip-path="url(#clip0_0_1)">
<path d="M797.889 53.4998C798.387 53.2125 799.062 53.0511 799.766 53.0511C800.469 53.0511 801.144 53.2125 801.642 53.4998L814.777 61.0832C815.274 61.3705 815.554 61.7602 815.554 62.1665C815.554 62.5728 815.274 62.9625 814.777 63.2498L806.333 68.1248C805.835 68.4122 805.16 68.5736 804.457 68.5736C803.753 68.5736 803.078 68.4122 802.58 68.1248L789.445 60.5415C788.948 60.2542 788.668 59.8645 788.668 59.4582C788.668 59.0518 788.948 58.6622 789.445 58.3748L797.889 53.4998Z" stroke="#FEE1B9" stroke-width="2" stroke-linecap="round" stroke-linejoin="round"/>
<path d="M804.456 55.1252L806.333 54.0418C806.83 53.7545 807.505 53.5931 808.209 53.5931C808.913 53.5931 809.588 53.7545 810.085 54.0418L813.838 56.2085C814.336 56.4958 814.615 56.8855 814.615 57.2918C814.615 57.6982 814.336 58.0878 813.838 58.3752L811.962 59.4585" stroke="#FEE1B9" stroke-width="2" stroke-linecap="round" stroke-linejoin="round"/>
<path d="M803.518 60L803.509 60.005" stroke="#FEE1B9" stroke-width="2" stroke-linecap="round" stroke-linejoin="round"/>
<path d="M794.135 55.6665C795.434 57.9406 797.639 60.0071 800.571 61.7004C803.504 63.3936 807.083 64.6664 811.022 65.4165" stroke="#FEE1B9" stroke-width="2" stroke-linecap="round" stroke-linejoin="round"/>
</g>
<path d="M871.001 -168.406L68.8458 294.718M937.847 -129.813L135.692 333.312M1004.69 -91.2189L202.538 371.905M1071.54 -52.6252L269.384 410.499M737.308 -168.406L1071.54 24.5621M670.462 -129.813L1004.69 63.1558M603.616 -91.2189L937.847 101.75M536.769 -52.6252L871.001 140.343M469.923 -14.0315L804.154 178.937M403.077 24.5621L737.308 217.531M336.231 63.1558L670.462 256.124M269.384 101.75L603.616 294.718M202.538 140.343L536.769 333.312M135.692 178.937L469.923 371.905M68.8458 217.531L403.077 410.499M804.154 -207L1.99952 256.124L336.231 449.093L1138.39 -14.0315L804.154 -207Z" stroke="#8E521E" stroke-opacity="0.05" stroke-width="2"/>
<path d="M404.579 55.1252H397.073V59.4585" stroke="#FFAE57" stroke-opacity="0.3" stroke-width="2" stroke-linecap="round" stroke-linejoin="round"/>
<path d="M413.961 60.5415V64.8748H406.455" stroke="#FFAE57" stroke-opacity="0.3" stroke-width="2" stroke-linecap="round" stroke-linejoin="round"/>
<path d="M414.899 56.7502L396.135 63.2502" stroke="#FFAE57" stroke-opacity="0.3" stroke-width="2" stroke-linecap="round" stroke-linejoin="round"/>
<g clip-path="url(#clip1_0_1)">
<path d="M601.704 15.9583C602.201 15.671 602.876 15.5096 603.58 15.5096C604.284 15.5096 604.959 15.671 605.456 15.9583L616.715 22.4583C617.212 22.7457 617.492 23.1353 617.492 23.5417C617.492 23.948 617.212 24.3377 616.715 24.625L605.456 31.125C604.959 31.4123 604.284 31.5737 603.58 31.5737C602.876 31.5737 602.201 31.4123 601.704 31.125L590.445 24.625C589.948 24.3377 589.668 23.948 589.668 23.5417C589.668 23.1353 589.948 22.7457 590.445 22.4583L601.704 15.9583Z" stroke="#FEE1B9" stroke-width="2" stroke-linecap="round" stroke-linejoin="round"/>
<path d="M616.715 20.2915L612.962 22.4582" stroke="#FEE1B9" stroke-width="2" stroke-linecap="round" stroke-linejoin="round"/>
<path d="M609.209 15.9585L605.456 18.1252" stroke="#FEE1B9" stroke-width="2" stroke-linecap="round" stroke-linejoin="round"/>
<path d="M597.951 18.125L612.962 26.7917" stroke="#FEE1B9" stroke-width="2" stroke-linecap="round" stroke-linejoin="round"/>
<path d="M597.951 21.375L597.963 21.382" stroke="#FEE1B9" stroke-width="2" stroke-linecap="round" stroke-linejoin="round"/>
<path d="M600.773 23.0054L600.778 23.0079" stroke="#FEE1B9" stroke-width="2" stroke-linecap="round" stroke-linejoin="round"/>
<path d="M603.588 24.6304L603.592 24.6329" stroke="#FEE1B9" stroke-width="2" stroke-linecap="round" stroke-linejoin="round"/>
<path d="M606.408 26.2583L606.413 26.2608" stroke="#FEE1B9" stroke-width="2" stroke-linecap="round" stroke-linejoin="round"/>
<path d="M600.779 26.2583L600.784 26.2608" stroke="#FEE1B9" stroke-width="2" stroke-linecap="round" stroke-linejoin="round"/>
<path d="M595.145 23.0054L595.149 23.0079" stroke="#FEE1B9" stroke-width="2" stroke-linecap="round" stroke-linejoin="round"/>
<path d="M597.959 24.6304L597.963 24.6329" stroke="#FEE1B9" stroke-width="2" stroke-linecap="round" stroke-linejoin="round"/>
</g>
<defs>
<clipPath id="clip0_0_1">
<rect width="26" height="26" fill="white" transform="matrix(0.866025 0.5 -0.866025 0.5 803.518 47)"/>
</clipPath>
<clipPath id="clip1_0_1">
<rect width="26" height="26" fill="white" transform="matrix(0.866025 0.5 -0.866025 0.5 604.518 10)"/>
</clipPath>
</defs>
</svg>
