<svg width="555" height="76" viewBox="0 0 555 76" fill="none" xmlns="http://www.w3.org/2000/svg">
<g filter="url(#filter0_dddd_9001_5754)">
<g clip-path="url(#clip0_9001_5754)">
<rect width="513.155" height="33.0151" rx="16.5075" transform="matrix(1 0 0.0196347 0.999807 20.3506 12.0103)" fill="black"/>
<path d="M2.18819 34.0062L1.96357 22.5684H6.34757C7.04091 22.5684 7.64609 22.6964 8.16311 22.9523C8.6906 23.1976 9.10274 23.5442 9.39953 23.9921C9.707 24.44 9.8667 24.9679 9.87864 25.5758C9.88974 26.141 9.75014 26.6369 9.45985 27.0635C9.18023 27.4901 8.78149 27.8261 8.26364 28.0713C7.75625 28.306 7.15589 28.4233 6.46255 28.4233H3.87055L3.85516 27.6394H6.67116C7.42849 27.6394 8.08701 27.7674 8.6467 28.0233C9.20619 28.2686 9.63987 28.6259 9.94775 29.0951C10.2663 29.5644 10.4319 30.1189 10.4444 30.7588C10.457 31.3987 10.3134 31.9639 10.0137 32.4545C9.71402 32.9451 9.28956 33.329 8.74034 33.6063C8.19091 33.8729 7.54286 34.0062 6.79619 34.0062H2.18819ZM3.80855 32.5985H6.78455C7.41388 32.5985 7.90653 32.4278 8.2625 32.0866C8.61846 31.7453 8.79068 31.2814 8.77917 30.6948C8.76786 30.1189 8.57762 29.6657 8.20846 29.3351C7.83909 28.9938 7.33974 28.8232 6.71041 28.8232H3.57441L3.54708 27.4315H6.37908C6.96574 27.4315 7.42137 27.2768 7.74597 26.9676C8.07056 26.6583 8.22752 26.2317 8.21683 25.6878C8.20657 25.1652 8.02774 24.7493 7.68033 24.44C7.34359 24.1308 6.88722 23.9761 6.31122 23.9761H3.63922L3.80855 32.5985ZM16.9823 37.1096H15.3823L15.1652 26.0557H16.7492L16.7969 28.4873H16.4449C16.5093 27.9647 16.6763 27.5061 16.9459 27.1115C17.226 26.7063 17.5823 26.3863 18.0151 26.1517C18.4585 25.9171 18.9522 25.7998 19.4962 25.7998C20.2108 25.7998 20.8491 25.9811 21.4108 26.3437C21.9726 26.7063 22.4251 27.2075 22.7684 27.8474C23.1116 28.4873 23.2913 29.2178 23.3074 30.039C23.3235 30.8601 23.1672 31.5907 22.8385 32.2305C22.5201 32.8597 22.0765 33.3557 21.5077 33.7183C20.9495 34.0808 20.313 34.2621 19.5983 34.2621C18.937 34.2621 18.3582 34.1182 17.8619 33.8302C17.376 33.5316 17.0001 33.1317 16.7343 32.6305C16.4789 32.1186 16.3717 31.548 16.4127 30.9188L16.7267 30.6148C16.7888 31.0628 16.9353 31.4574 17.166 31.7986C17.3967 32.1399 17.69 32.4118 18.046 32.6145C18.4124 32.8064 18.809 32.9024 19.2356 32.9024C19.7263 32.9024 20.1506 32.7798 20.5084 32.5345C20.8769 32.2892 21.1583 31.9533 21.3526 31.5267C21.5574 31.0894 21.6543 30.5935 21.6434 30.039C21.6323 29.4737 21.5212 28.9778 21.3102 28.5512C21.1096 28.114 20.8309 27.7727 20.4741 27.5274C20.1173 27.2822 19.6989 27.1595 19.2189 27.1595C18.7495 27.1595 18.336 27.2875 17.9784 27.5434C17.6208 27.7994 17.3398 28.1567 17.1355 28.6152C16.9309 29.0631 16.8345 29.5857 16.8462 30.1829L16.9823 37.1096ZM31.3623 34.0062H29.9063L29.8755 32.4385L29.8203 32.0706L29.7619 29.0951C29.7497 28.4766 29.5535 27.9914 29.1733 27.6394C28.7928 27.2768 28.2773 27.0955 27.6266 27.0955C26.7733 27.0955 26.0335 27.4475 25.4073 28.1513L24.4599 27.1595C25.3701 26.253 26.4598 25.7998 27.7292 25.7998C28.4332 25.7998 29.0438 25.9331 29.561 26.1997C30.0889 26.4663 30.5017 26.8449 30.7993 27.3355C31.0967 27.8154 31.2519 28.3859 31.2649 29.0472L31.3623 34.0062ZM27.2233 34.2621C26.658 34.2621 26.1546 34.1555 25.7131 33.9422C25.282 33.7183 24.94 33.4143 24.6872 33.0304C24.4343 32.6465 24.303 32.2092 24.2934 31.7186C24.2773 30.8975 24.5794 30.2576 25.1997 29.799C25.8305 29.3298 26.6845 29.0951 27.7619 29.0951H29.9059L29.9282 30.2309H27.9282C27.2882 30.2309 26.7894 30.3589 26.4317 30.6148C26.0845 30.8601 25.9153 31.2067 25.9241 31.6546C25.9321 32.0599 26.0773 32.3905 26.3596 32.6465C26.6524 32.8917 27.0388 33.0144 27.5188 33.0144C27.9775 33.0144 28.3862 32.9131 28.7449 32.7104C29.1036 32.5078 29.3915 32.2305 29.6085 31.8786C29.8256 31.5267 29.9457 31.1214 29.9687 30.6628L30.47 30.9348C30.4828 31.5853 30.3501 32.1612 30.0719 32.6625C29.8044 33.1637 29.4229 33.5583 28.9272 33.8462C28.442 34.1235 27.874 34.2621 27.2233 34.2621ZM36.0158 34.2621C34.5012 34.2621 33.3072 33.7556 32.434 32.7424L33.3742 31.7346C33.6702 32.1399 34.0281 32.4438 34.4481 32.6465C34.8679 32.8384 35.3338 32.9344 35.8458 32.9344C36.4218 32.9344 36.8729 32.8224 37.1992 32.5985C37.5252 32.3638 37.6843 32.0439 37.6763 31.6387C37.6619 30.9028 37.1107 30.5349 36.0227 30.5349H34.4387L34.4148 29.3191H35.9988C36.4574 29.3191 36.8077 29.2284 37.0494 29.0472C37.3019 28.8659 37.4248 28.6099 37.4184 28.2793C37.4112 27.9167 37.2564 27.6341 36.9537 27.4315C36.6511 27.2288 36.2437 27.1275 35.7317 27.1275C34.7824 27.1275 34.0273 27.5114 33.4664 28.2793L32.5029 27.2875C33.3474 26.2957 34.431 25.7998 35.7537 25.7998C36.3937 25.7998 36.9555 25.8958 37.4393 26.0877C37.9231 26.2797 38.3017 26.5463 38.575 26.8876C38.8591 27.2288 39.0056 27.6288 39.0146 28.0873C39.0236 28.5459 38.9031 28.9298 38.6532 29.2391C38.4033 29.5484 38.0239 29.783 37.515 29.943L37.5097 29.671C38.0784 29.8417 38.5155 30.1029 38.8211 30.4549C39.1267 30.8068 39.2843 31.2281 39.2939 31.7186C39.3035 32.2092 39.1628 32.6465 38.8717 33.0304C38.5912 33.4143 38.2025 33.7183 37.7056 33.9422C37.2191 34.1555 36.6558 34.2621 36.0158 34.2621ZM42.576 37.1096H40.976L40.7589 26.0557H42.3429L42.3907 28.4873H42.0387C42.1031 27.9647 42.2701 27.5061 42.5397 27.1115C42.8197 26.7063 43.1761 26.3863 43.6088 26.1517C44.0522 25.9171 44.5459 25.7998 45.0899 25.7998C45.8046 25.7998 46.4428 25.9811 47.0046 26.3437C47.5664 26.7063 48.0189 27.2075 48.3621 27.8474C48.7054 28.4873 48.885 29.2178 48.9012 30.039C48.9173 30.8601 48.761 31.5907 48.4322 32.2305C48.1139 32.8597 47.6703 33.3557 47.1014 33.7183C46.5432 34.0808 45.9068 34.2621 45.1921 34.2621C44.5308 34.2621 43.9519 34.1182 43.4556 33.8302C42.9698 33.5316 42.5939 33.1317 42.3281 32.6305C42.0727 32.1186 41.9655 31.548 42.0064 30.9188L42.3205 30.6148C42.3826 31.0628 42.529 31.4574 42.7597 31.7986C42.9904 32.1399 43.2838 32.4118 43.6397 32.6145C44.0062 32.8064 44.4027 32.9024 44.8294 32.9024C45.3201 32.9024 45.7443 32.7798 46.1022 32.5345C46.4707 32.2892 46.7521 31.9533 46.9464 31.5267C47.1511 31.0894 47.2481 30.5935 47.2372 30.039C47.2261 29.4737 47.115 28.9778 46.9039 28.5512C46.7034 28.114 46.4247 27.7727 46.0678 27.5274C45.711 27.2822 45.2926 27.1595 44.8126 27.1595C44.3433 27.1595 43.9298 27.2875 43.5722 27.5434C43.2145 27.7994 42.9335 28.1567 42.7292 28.6152C42.5247 29.0631 42.4283 29.5857 42.44 30.1829L42.576 37.1096ZM56.9561 34.0062H55.5001L55.4693 32.4385L55.4141 32.0706L55.3556 29.0951C55.3435 28.4766 55.1473 27.9914 54.767 27.6394C54.3866 27.2768 53.871 27.0955 53.2204 27.0955C52.367 27.0955 51.6273 27.4475 51.0011 28.1513L50.0536 27.1595C50.9638 26.253 52.0536 25.7998 53.3229 25.7998C54.0269 25.7998 54.6375 25.9331 55.1548 26.1997C55.6827 26.4663 56.0954 26.8449 56.3931 27.3355C56.6905 27.8154 56.8457 28.3859 56.8587 29.0472L56.9561 34.0062ZM52.8171 34.2621C52.2518 34.2621 51.7483 34.1555 51.3068 33.9422C50.8758 33.7183 50.5338 33.4143 50.2809 33.0304C50.028 32.6465 49.8968 32.2092 49.8872 31.7186C49.871 30.8975 50.1731 30.2576 50.7935 29.799C51.4242 29.3298 52.2783 29.0951 53.3556 29.0951H55.4996L55.5219 30.2309H53.5219C52.8819 30.2309 52.3831 30.3589 52.0255 30.6148C51.6783 30.8601 51.5091 31.2067 51.5179 31.6546C51.5259 32.0599 51.671 32.3905 51.9534 32.6465C52.2462 32.8917 52.6326 33.0144 53.1126 33.0144C53.5713 33.0144 53.9799 32.9131 54.3386 32.7104C54.6973 32.5078 54.9852 32.2305 55.2023 31.8786C55.4194 31.5267 55.5394 31.1214 55.5624 30.6628L56.0638 30.9348C56.0765 31.5853 55.9438 32.1612 55.6657 32.6625C55.3982 33.1637 55.0166 33.5583 54.5209 33.8462C54.0357 34.1235 53.4678 34.2621 52.8171 34.2621ZM62.3616 34.2621C61.0923 34.2621 60.1068 33.7822 59.4053 32.8224C58.7143 31.8519 58.3508 30.4549 58.315 28.6312C58.2807 26.8822 58.532 25.5598 59.0691 24.664C59.6169 23.7682 60.5022 23.2243 61.7251 23.0323L65.0424 22.4884L65.2937 23.8801L61.993 24.456C61.4509 24.552 61.0173 24.744 60.6923 25.0319C60.3671 25.3092 60.1353 25.7251 59.9968 26.2797C59.8584 26.8342 59.7877 27.5808 59.7848 28.5193L59.4429 29.0312C59.5071 28.4979 59.6845 28.0287 59.9752 27.6234C60.2659 27.2182 60.6384 26.9036 61.0927 26.6796C61.5576 26.4556 62.0674 26.3437 62.6221 26.3437C63.3154 26.3437 63.9212 26.5036 64.4395 26.8236C64.9576 27.1329 65.361 27.5754 65.6496 28.1513C65.9487 28.7165 66.1059 29.3884 66.1212 30.1669C66.1373 30.9881 65.9914 31.708 65.6836 32.3265C65.3864 32.9451 64.9532 33.425 64.3839 33.7662C63.8144 34.0968 63.1403 34.2621 62.3616 34.2621ZM62.2866 32.8864C62.9799 32.8864 63.5139 32.6465 63.8884 32.1665C64.2737 31.6866 64.4584 31.0414 64.4424 30.2309C64.4265 29.4204 64.2329 28.7965 63.8617 28.3593C63.4904 27.922 62.9741 27.7034 62.3128 27.7034C61.6835 27.7034 61.149 27.9167 60.7094 28.3433C60.2695 28.7592 59.9818 29.3138 59.846 30.007L59.6277 29.4791L59.9897 29.1751C60.001 29.751 60.0485 30.2682 60.1322 30.7268C60.2265 31.1854 60.3622 31.5747 60.5391 31.8946C60.7267 32.2145 60.9609 32.4598 61.2416 32.6305C61.5329 32.8011 61.8813 32.8864 62.2866 32.8864ZM71.3479 34.2621C70.5692 34.2621 69.867 34.0808 69.2412 33.7183C68.6261 33.3557 68.1362 32.8544 67.7716 32.2145C67.4177 31.5747 67.2328 30.8495 67.2169 30.039C67.2008 29.2178 67.3571 28.4873 67.6859 27.8474C68.0253 27.2075 68.4955 26.7063 69.0963 26.3437C69.7079 25.9811 70.403 25.7998 71.1817 25.7998C71.9817 25.7998 72.6892 25.9811 73.3043 26.3437C73.9301 26.7063 74.42 27.2075 74.7739 27.8474C75.1384 28.4873 75.3287 29.2125 75.3446 30.023C75.3607 30.8441 75.1991 31.5747 74.8596 32.2145C74.5309 32.8544 74.0607 33.3557 73.4492 33.7183C72.8483 34.0808 72.1479 34.2621 71.3479 34.2621ZM71.3372 32.9024C71.8172 32.9024 72.2307 32.7798 72.5779 32.5345C72.9251 32.2892 73.1958 31.9533 73.3901 31.5267C73.5842 31.0894 73.6758 30.5935 73.6649 30.039C73.6536 29.4631 73.5425 28.9672 73.3317 28.5512C73.1313 28.1247 72.8474 27.7887 72.4799 27.5434C72.1231 27.2982 71.7047 27.1755 71.2247 27.1755C70.7447 27.1755 70.3258 27.2982 69.9679 27.5434C69.6207 27.7887 69.35 28.1247 69.1557 28.5512C68.9719 28.9672 68.8856 29.4631 68.8969 30.039C68.9078 30.5935 69.0135 31.0894 69.2141 31.5267C69.4252 31.9533 69.7091 32.2892 70.0659 32.5345C70.4334 32.7798 70.8572 32.9024 71.3372 32.9024ZM75.6264 27.3835L75.6003 26.0557L82.4643 26.0557L82.4904 27.3835L75.6264 27.3835ZM78.3965 34.0062L78.2504 26.5676H79.8344L79.9805 34.0062H78.3965ZM83.8838 34.0062L83.7277 26.0557H85.3277L85.4838 34.0062H83.8838ZM88.9238 34.0062L84.8748 29.879H85.0348L88.5277 26.0557H90.5117L86.6891 30.1989L86.434 29.4311L91.0198 34.0062H88.9238ZM97.4656 31.6706L98.4294 32.6785C98.0239 33.2117 97.5357 33.6116 96.9649 33.8782C96.4046 34.1342 95.7885 34.2621 95.1165 34.2621C94.2845 34.2621 93.5503 34.0808 92.9138 33.7183C92.288 33.3557 91.7928 32.8544 91.4283 32.2145C91.0637 31.5747 90.8735 30.8495 90.8575 30.039C90.8416 29.2284 90.9981 28.5033 91.3268 27.8634C91.6663 27.2235 92.1257 26.7223 92.7053 26.3597C93.2953 25.9864 93.9636 25.7998 94.7103 25.7998C95.4356 25.7998 96.0792 25.9811 96.641 26.3437C97.2026 26.6956 97.6442 27.1862 97.9659 27.8154C98.2982 28.4446 98.4724 29.1645 98.4883 29.975L98.4902 30.071H96.9062L96.903 29.911C96.8863 29.0578 96.681 28.3806 96.2871 27.8794C95.904 27.3781 95.3817 27.1275 94.7204 27.1275C94.2724 27.1275 93.88 27.2448 93.5433 27.4795C93.2066 27.7141 92.9465 28.05 92.7631 28.4873C92.5797 28.9245 92.4936 29.4311 92.5049 30.007C92.5164 30.5935 92.6278 31.1054 92.8391 31.5427C93.0608 31.9693 93.3662 32.3105 93.7552 32.5665C94.1547 32.8118 94.6264 32.9344 95.1704 32.9344C95.6504 32.9344 96.0803 32.8278 96.4601 32.6145C96.8399 32.4012 97.1751 32.0866 97.4656 31.6706ZM98.4996 30.5509H92.0036L91.981 29.3991H98.237L98.4883 29.975L98.4996 30.5509Z" fill="white"/>
<path d="M110.687 26.1571C110.725 26.1147 110.771 26.0822 110.823 26.0623C110.875 26.0425 110.93 26.0358 110.985 26.0428C111.04 26.0498 111.092 26.0703 111.138 26.1026C111.184 26.135 111.221 26.1783 111.248 26.229C111.423 26.5611 111.68 26.8342 111.955 27.0543C112.566 27.5444 113.317 27.7998 114.084 27.8204L116.201 27.8773C116.381 27.8822 116.469 27.7772 116.501 27.6197C116.52 27.519 116.513 27.4148 116.481 27.3181C116.448 27.2214 116.392 27.1359 116.318 27.0703C115.765 26.5698 115.379 25.8952 115.214 25.1446C115.049 24.3939 115.114 23.6064 115.401 22.8964C115.687 22.1864 116.179 21.5909 116.806 21.1966C117.433 20.8022 118.161 20.6296 118.885 20.7036C120.409 20.8557 121.637 22.0861 121.911 23.6407C121.917 23.6762 121.933 23.7089 121.956 23.735C121.98 23.761 122.01 23.7793 122.043 23.7876C122.486 23.8944 122.935 23.9699 123.387 24.0135C123.416 24.0165 123.444 24.027 123.468 24.0441C123.493 24.0612 123.512 24.0845 123.526 24.1117C123.54 24.1389 123.547 24.1693 123.547 24.2002C123.547 24.2311 123.539 24.2615 123.526 24.2888C123.131 25.0744 122.459 25.6229 121.863 25.9824C121.619 26.1281 121.404 26.3221 121.229 26.5538L121.217 26.5698C121.105 26.7204 121.051 26.9103 121.065 27.1013C121.079 27.2924 121.161 27.4704 121.294 27.5996C122.641 28.9385 122.893 30.1423 122.861 31.1654C122.82 32.5334 122.078 33.6695 120.946 34.3329C118.233 35.9237 114.629 35.3902 112.942 34.6402C111.65 34.0655 110.432 33.1112 109.924 31.7276C108.885 28.8971 109.963 26.9683 110.687 26.1571ZM120.208 24.3577C120.324 24.3608 120.438 24.3275 120.537 24.2618C120.635 24.1961 120.713 24.1011 120.76 23.9887C120.807 23.8764 120.822 23.7517 120.803 23.6306C120.784 23.5094 120.731 23.3972 120.651 23.3081C120.571 23.219 120.469 23.157 120.355 23.13C120.242 23.1029 120.124 23.1121 120.016 23.1562C119.907 23.2004 119.814 23.2776 119.746 23.378C119.679 23.4785 119.642 23.5977 119.638 23.7206C119.634 23.8854 119.691 24.0451 119.798 24.1646C119.905 24.2841 120.052 24.3535 120.208 24.3577Z" fill="white"/>
<path d="M136.009 34.0062L135.784 22.5684H140.168C140.861 22.5684 141.466 22.6964 141.983 22.9523C142.511 23.1976 142.923 23.5442 143.22 23.9921C143.527 24.44 143.687 24.9679 143.699 25.5758C143.71 26.141 143.57 26.6369 143.28 27.0635C143.001 27.4901 142.602 27.8261 142.084 28.0713C141.577 28.306 140.976 28.4233 140.283 28.4233H137.691L137.675 27.6394H140.491C141.249 27.6394 141.907 27.7674 142.467 28.0233C143.026 28.2686 143.46 28.6259 143.768 29.0951C144.087 29.5644 144.252 30.1189 144.265 30.7588C144.277 31.3987 144.134 31.9639 143.834 32.4545C143.534 32.9451 143.11 33.329 142.561 33.6063C142.011 33.8729 141.363 34.0062 140.617 34.0062H136.009ZM137.629 32.5985H140.605C141.234 32.5985 141.727 32.4278 142.083 32.0866C142.439 31.7453 142.611 31.2814 142.599 30.6948C142.588 30.1189 142.398 29.6657 142.029 29.3351C141.659 28.9938 141.16 28.8232 140.531 28.8232H137.395L137.367 27.4315H140.199C140.786 27.4315 141.242 27.2768 141.566 26.9676C141.891 26.6583 142.048 26.2317 142.037 25.6878C142.027 25.1652 141.848 24.7493 141.501 24.44C141.164 24.1308 140.708 23.9761 140.132 23.9761H137.46L137.629 32.5985ZM150.803 37.1096H149.203L148.985 26.0557H150.569L150.617 28.4873H150.265C150.33 27.9647 150.497 27.5061 150.766 27.1115C151.046 26.7063 151.403 26.3863 151.835 26.1517C152.279 25.9171 152.772 25.7998 153.316 25.7998C154.031 25.7998 154.669 25.9811 155.231 26.3437C155.793 26.7063 156.245 27.2075 156.589 27.8474C156.932 28.4873 157.112 29.2178 157.128 30.039C157.144 30.8601 156.988 31.5907 156.659 32.2305C156.34 32.8597 155.897 33.3557 155.328 33.7183C154.77 34.0808 154.133 34.2621 153.419 34.2621C152.757 34.2621 152.178 34.1182 151.682 33.8302C151.196 33.5316 150.82 33.1317 150.555 32.6305C150.299 32.1186 150.192 31.548 150.233 30.9188L150.547 30.6148C150.609 31.0628 150.756 31.4574 150.986 31.7986C151.217 32.1399 151.51 32.4118 151.866 32.6145C152.233 32.8064 152.629 32.9024 153.056 32.9024C153.547 32.9024 153.971 32.7798 154.329 32.5345C154.697 32.2892 154.979 31.9533 155.173 31.5267C155.378 31.0894 155.475 30.5935 155.464 30.039C155.453 29.4737 155.342 28.9778 155.131 28.5512C154.93 28.114 154.651 27.7727 154.294 27.5274C153.938 27.2822 153.519 27.1595 153.039 27.1595C152.57 27.1595 152.156 27.2875 151.799 27.5434C151.441 27.7994 151.16 28.1567 150.956 28.6152C150.751 29.0631 150.655 29.5857 150.667 30.1829L150.803 37.1096ZM165.183 34.0062H163.727L163.696 32.4385L163.641 32.0706L163.582 29.0951C163.57 28.4766 163.374 27.9914 162.994 27.6394C162.613 27.2768 162.098 27.0955 161.447 27.0955C160.594 27.0955 159.854 27.4475 159.228 28.1513L158.28 27.1595C159.19 26.253 160.28 25.7998 161.549 25.7998C162.253 25.7998 162.864 25.9331 163.381 26.1997C163.909 26.4663 164.322 26.8449 164.62 27.3355C164.917 27.8154 165.072 28.3859 165.085 29.0472L165.183 34.0062ZM161.044 34.2621C160.478 34.2621 159.975 34.1555 159.533 33.9422C159.102 33.7183 158.76 33.4143 158.507 33.0304C158.255 32.6465 158.123 32.2092 158.114 31.7186C158.098 30.8975 158.4 30.2576 159.02 29.799C159.651 29.3298 160.505 29.0951 161.582 29.0951H163.726L163.748 30.2309H161.748C161.108 30.2309 160.61 30.3589 160.252 30.6148C159.905 30.8601 159.736 31.2067 159.744 31.6546C159.752 32.0599 159.898 32.3905 160.18 32.6465C160.473 32.8917 160.859 33.0144 161.339 33.0144C161.798 33.0144 162.207 32.9131 162.565 32.7104C162.924 32.5078 163.212 32.2305 163.429 31.8786C163.646 31.5267 163.766 31.1214 163.789 30.6628L164.29 30.9348C164.303 31.5853 164.17 32.1612 163.892 32.6625C163.625 33.1637 163.243 33.5583 162.747 33.8462C162.262 34.1235 161.694 34.2621 161.044 34.2621ZM169.836 34.2621C168.321 34.2621 167.128 33.7556 166.254 32.7424L167.195 31.7346C167.49 32.1399 167.848 32.4438 168.268 32.6465C168.688 32.8384 169.154 32.9344 169.666 32.9344C170.242 32.9344 170.693 32.8224 171.019 32.5985C171.346 32.3638 171.505 32.0439 171.497 31.6387C171.482 30.9028 170.931 30.5349 169.843 30.5349H168.259L168.235 29.3191H169.819C170.278 29.3191 170.628 29.2284 170.87 29.0472C171.122 28.8659 171.245 28.6099 171.239 28.2793C171.232 27.9167 171.077 27.6341 170.774 27.4315C170.471 27.2288 170.064 27.1275 169.552 27.1275C168.603 27.1275 167.848 27.5114 167.287 28.2793L166.323 27.2875C167.168 26.2957 168.251 25.7998 169.574 25.7998C170.214 25.7998 170.776 25.8958 171.26 26.0877C171.743 26.2797 172.122 26.5463 172.395 26.8876C172.679 27.2288 172.826 27.6288 172.835 28.0873C172.844 28.5459 172.723 28.9298 172.474 29.2391C172.224 29.5484 171.844 29.783 171.335 29.943L171.33 29.671C171.899 29.8417 172.336 30.1029 172.641 30.4549C172.947 30.8068 173.105 31.2281 173.114 31.7186C173.124 32.2092 172.983 32.6465 172.692 33.0304C172.412 33.4143 172.023 33.7183 171.526 33.9422C171.039 34.1555 170.476 34.2621 169.836 34.2621ZM176.396 37.1096H174.796L174.579 26.0557H176.163L176.211 28.4873H175.859C175.923 27.9647 176.09 27.5061 176.36 27.1115C176.64 26.7063 176.996 26.3863 177.429 26.1517C177.873 25.9171 178.366 25.7998 178.91 25.7998C179.625 25.7998 180.263 25.9811 180.825 26.3437C181.387 26.7063 181.839 27.2075 182.182 27.8474C182.526 28.4873 182.705 29.2178 182.721 30.039C182.738 30.8601 182.581 31.5907 182.253 32.2305C181.934 32.8597 181.491 33.3557 180.922 33.7183C180.364 34.0808 179.727 34.2621 179.012 34.2621C178.351 34.2621 177.772 34.1182 177.276 33.8302C176.79 33.5316 176.414 33.1317 176.148 32.6305C175.893 32.1186 175.786 31.548 175.827 30.9188L176.141 30.6148C176.203 31.0628 176.349 31.4574 176.58 31.7986C176.811 32.1399 177.104 32.4118 177.46 32.6145C177.826 32.8064 178.223 32.9024 178.65 32.9024C179.14 32.9024 179.565 32.7798 179.922 32.5345C180.291 32.2892 180.572 31.9533 180.767 31.5267C180.971 31.0894 181.068 30.5935 181.057 30.039C181.046 29.4737 180.935 28.9778 180.724 28.5512C180.524 28.114 180.245 27.7727 179.888 27.5274C179.531 27.2822 179.113 27.1595 178.633 27.1595C178.164 27.1595 177.75 27.2875 177.392 27.5434C177.035 27.7994 176.754 28.1567 176.55 28.6152C176.345 29.0631 176.249 29.5857 176.26 30.1829L176.396 37.1096ZM190.776 34.0062H189.32L189.29 32.4385L189.234 32.0706L189.176 29.0951C189.164 28.4766 188.968 27.9914 188.587 27.6394C188.207 27.2768 187.691 27.0955 187.041 27.0955C186.187 27.0955 185.448 27.4475 184.821 28.1513L183.874 27.1595C184.784 26.253 185.874 25.7998 187.143 25.7998C187.847 25.7998 188.458 25.9331 188.975 26.1997C189.503 26.4663 189.916 26.8449 190.213 27.3355C190.511 27.8154 190.666 28.3859 190.679 29.0472L190.776 34.0062ZM186.637 34.2621C186.072 34.2621 185.569 34.1555 185.127 33.9422C184.696 33.7183 184.354 33.4143 184.101 33.0304C183.848 32.6465 183.717 32.2092 183.707 31.7186C183.691 30.8975 183.993 30.2576 184.614 29.799C185.245 29.3298 186.099 29.0951 187.176 29.0951H189.32L189.342 30.2309H187.342C186.702 30.2309 186.203 30.3589 185.846 30.6148C185.499 30.8601 185.329 31.2067 185.338 31.6546C185.346 32.0599 185.491 32.3905 185.774 32.6465C186.067 32.8917 186.453 33.0144 186.933 33.0144C187.392 33.0144 187.8 32.9131 188.159 32.7104C188.518 32.5078 188.806 32.2305 189.023 31.8786C189.24 31.5267 189.36 31.1214 189.383 30.6628L189.884 30.9348C189.897 31.5853 189.764 32.1612 189.486 32.6625C189.219 33.1637 188.837 33.5583 188.341 33.8462C187.856 34.1235 187.288 34.2621 186.637 34.2621ZM196.182 34.2621C194.913 34.2621 193.927 33.7822 193.226 32.8224C192.535 31.8519 192.171 30.4549 192.135 28.6312C192.101 26.8822 192.352 25.5598 192.889 24.664C193.437 23.7682 194.322 23.2243 195.545 23.0323L198.863 22.4884L199.114 23.8801L195.813 24.456C195.271 24.552 194.838 24.744 194.513 25.0319C194.187 25.3092 193.956 25.7251 193.817 26.2797C193.679 26.8342 193.608 27.5808 193.605 28.5193L193.263 29.0312C193.327 28.4979 193.505 28.0287 193.796 27.6234C194.086 27.2182 194.459 26.9036 194.913 26.6796C195.378 26.4556 195.888 26.3437 196.442 26.3437C197.136 26.3437 197.742 26.5036 198.26 26.8236C198.778 27.1329 199.181 27.5754 199.47 28.1513C199.769 28.7165 199.926 29.3884 199.941 30.1669C199.958 30.9881 199.812 31.708 199.504 32.3265C199.207 32.9451 198.773 33.425 198.204 33.7662C197.635 34.0968 196.961 34.2621 196.182 34.2621ZM196.107 32.8864C196.8 32.8864 197.334 32.6465 197.709 32.1665C198.094 31.6866 198.279 31.0414 198.263 30.2309C198.247 29.4204 198.053 28.7965 197.682 28.3593C197.311 27.922 196.794 27.7034 196.133 27.7034C195.504 27.7034 194.969 27.9167 194.53 28.3433C194.09 28.7592 193.802 29.3138 193.666 30.007L193.448 29.4791L193.81 29.1751C193.821 29.751 193.869 30.2682 193.952 30.7268C194.047 31.1854 194.182 31.5747 194.359 31.8946C194.547 32.2145 194.781 32.4598 195.062 32.6305C195.353 32.8011 195.702 32.8864 196.107 32.8864ZM205.168 34.2621C204.389 34.2621 203.687 34.0808 203.061 33.7183C202.446 33.3557 201.957 32.8544 201.592 32.2145C201.238 31.5747 201.053 30.8495 201.037 30.039C201.021 29.2178 201.177 28.4873 201.506 27.8474C201.846 27.2075 202.316 26.7063 202.917 26.3437C203.528 25.9811 204.223 25.7998 205.002 25.7998C205.802 25.7998 206.51 25.9811 207.125 26.3437C207.75 26.7063 208.24 27.2075 208.594 27.8474C208.959 28.4873 209.149 29.2125 209.165 30.023C209.181 30.8441 209.019 31.5747 208.68 32.2145C208.351 32.8544 207.881 33.3557 207.269 33.7183C206.669 34.0808 205.968 34.2621 205.168 34.2621ZM205.157 32.9024C205.637 32.9024 206.051 32.7798 206.398 32.5345C206.745 32.2892 207.016 31.9533 207.21 31.5267C207.405 31.0894 207.496 30.5935 207.485 30.039C207.474 29.4631 207.363 28.9672 207.152 28.5512C206.952 28.1247 206.668 27.7887 206.3 27.5434C205.943 27.2982 205.525 27.1755 205.045 27.1755C204.565 27.1755 204.146 27.2982 203.788 27.5434C203.441 27.7887 203.17 28.1247 202.976 28.5512C202.792 28.9672 202.706 29.4631 202.717 30.039C202.728 30.5935 202.834 31.0894 203.034 31.5267C203.245 31.9533 203.529 32.2892 203.886 32.5345C204.254 32.7798 204.677 32.9024 205.157 32.9024ZM209.447 27.3835L209.421 26.0557L216.285 26.0557L216.311 27.3835L209.447 27.3835ZM212.217 34.0062L212.071 26.5676H213.655L213.801 34.0062H212.217ZM217.704 34.0062L217.548 26.0557H219.148L219.304 34.0062H217.704ZM222.744 34.0062L218.695 29.879H218.855L222.348 26.0557H224.332L220.509 30.1989L220.254 29.4311L224.84 34.0062H222.744ZM231.286 31.6706L232.25 32.6785C231.844 33.2117 231.356 33.6116 230.785 33.8782C230.225 34.1342 229.609 34.2621 228.937 34.2621C228.105 34.2621 227.371 34.0808 226.734 33.7183C226.108 33.3557 225.613 32.8544 225.249 32.2145C224.884 31.5747 224.694 30.8495 224.678 30.039C224.662 29.2284 224.818 28.5033 225.147 27.8634C225.487 27.2235 225.946 26.7223 226.526 26.3597C227.116 25.9864 227.784 25.7998 228.531 25.7998C229.256 25.7998 229.9 25.9811 230.461 26.3437C231.023 26.6956 231.465 27.1862 231.786 27.8154C232.119 28.4446 232.293 29.1645 232.309 29.975L232.31 30.071H230.726L230.723 29.911C230.707 29.0578 230.501 28.3806 230.107 27.8794C229.724 27.3781 229.202 27.1275 228.541 27.1275C228.093 27.1275 227.7 27.2448 227.364 27.4795C227.027 27.7141 226.767 28.05 226.583 28.4873C226.4 28.9245 226.314 29.4311 226.325 30.007C226.337 30.5935 226.448 31.1054 226.659 31.5427C226.881 31.9693 227.186 32.3105 227.575 32.5665C227.975 32.8118 228.447 32.9344 228.991 32.9344C229.471 32.9344 229.901 32.8278 230.28 32.6145C230.66 32.4012 230.995 32.0866 231.286 31.6706ZM232.32 30.5509H225.824L225.801 29.3991H232.057L232.309 29.975L232.32 30.5509Z" fill="white"/>
<path d="M244.508 26.1571C244.546 26.1147 244.593 26.0822 244.644 26.0623C244.696 26.0425 244.752 26.0358 244.806 26.0428C244.861 26.0498 244.913 26.0703 244.959 26.1026C245.005 26.135 245.043 26.1783 245.07 26.229C245.244 26.5611 245.501 26.8342 245.776 27.0543C246.388 27.5444 247.138 27.7998 247.905 27.8204L250.023 27.8773C250.203 27.8822 250.291 27.7772 250.323 27.6197C250.341 27.519 250.334 27.4148 250.302 27.3181C250.27 27.2214 250.213 27.1359 250.139 27.0703C249.587 26.5698 249.2 25.8952 249.035 25.1446C248.87 24.3939 248.936 23.6064 249.222 22.8964C249.508 22.1864 250 21.5909 250.627 21.1966C251.254 20.8022 251.982 20.6296 252.706 20.7036C254.231 20.8557 255.458 22.0861 255.732 23.6407C255.738 23.6762 255.754 23.7089 255.778 23.735C255.801 23.761 255.831 23.7793 255.864 23.7876C256.307 23.8944 256.756 23.9699 257.209 24.0135C257.238 24.0165 257.265 24.027 257.29 24.0441C257.314 24.0612 257.334 24.0845 257.347 24.1117C257.361 24.1389 257.368 24.1693 257.368 24.2002C257.368 24.2311 257.361 24.2615 257.347 24.2888C256.952 25.0744 256.281 25.6229 255.685 25.9824C255.441 26.1281 255.226 26.3221 255.051 26.5538L255.039 26.5698C254.926 26.7204 254.872 26.9103 254.886 27.1013C254.9 27.2924 254.982 27.4704 255.116 27.5996C256.463 28.9385 256.714 30.1423 256.682 31.1654C256.642 32.5334 255.899 33.6695 254.767 34.3329C252.055 35.9237 248.451 35.3902 246.763 34.6402C245.471 34.0655 244.253 33.1112 243.745 31.7276C242.706 28.8971 243.784 26.9683 244.508 26.1571ZM254.029 24.3577C254.145 24.3608 254.26 24.3275 254.358 24.2618C254.456 24.1961 254.534 24.1011 254.581 23.9887C254.629 23.8764 254.644 23.7517 254.624 23.6306C254.605 23.5094 254.552 23.3972 254.472 23.3081C254.393 23.219 254.29 23.157 254.177 23.13C254.064 23.1029 253.945 23.1121 253.837 23.1562C253.729 23.2004 253.635 23.2776 253.568 23.378C253.501 23.4785 253.463 23.5977 253.46 23.7206C253.455 23.8854 253.513 24.0451 253.62 24.1646C253.726 24.2841 253.874 24.3535 254.029 24.3577Z" fill="white"/>
<path d="M269.83 34.0062L269.605 22.5684H273.989C274.683 22.5684 275.288 22.6964 275.805 22.9523C276.332 23.1976 276.744 23.5442 277.041 23.9921C277.349 24.44 277.508 24.9679 277.52 25.5758C277.531 26.141 277.392 26.6369 277.101 27.0635C276.822 27.4901 276.423 27.8261 275.905 28.0713C275.398 28.306 274.797 28.4233 274.104 28.4233H271.512L271.497 27.6394H274.313C275.07 27.6394 275.729 27.7674 276.288 28.0233C276.848 28.2686 277.281 28.6259 277.589 29.0951C277.908 29.5644 278.073 30.1189 278.086 30.7588C278.099 31.3987 277.955 31.9639 277.655 32.4545C277.356 32.9451 276.931 33.329 276.382 33.6063C275.833 33.8729 275.184 34.0062 274.438 34.0062H269.83ZM271.45 32.5985H274.426C275.055 32.5985 275.548 32.4278 275.904 32.0866C276.26 31.7453 276.432 31.2814 276.421 30.6948C276.409 30.1189 276.219 29.6657 275.85 29.3351C275.481 28.9938 274.981 28.8232 274.352 28.8232H271.216L271.189 27.4315H274.021C274.607 27.4315 275.063 27.2768 275.388 26.9676C275.712 26.6583 275.869 26.2317 275.858 25.6878C275.848 25.1652 275.669 24.7493 275.322 24.44C274.985 24.1308 274.529 23.9761 273.953 23.9761H271.281L271.45 32.5985ZM284.624 37.1096H283.024L282.807 26.0557H284.391L284.439 28.4873H284.087C284.151 27.9647 284.318 27.5061 284.588 27.1115C284.868 26.7063 285.224 26.3863 285.657 26.1517C286.1 25.9171 286.594 25.7998 287.138 25.7998C287.852 25.7998 288.491 25.9811 289.052 26.3437C289.614 26.7063 290.067 27.2075 290.41 27.8474C290.753 28.4873 290.933 29.2178 290.949 30.039C290.965 30.8601 290.809 31.5907 290.48 32.2305C290.162 32.8597 289.718 33.3557 289.149 33.7183C288.591 34.0808 287.955 34.2621 287.24 34.2621C286.579 34.2621 286 34.1182 285.503 33.8302C285.018 33.5316 284.642 33.1317 284.376 32.6305C284.121 32.1186 284.013 31.548 284.054 30.9188L284.368 30.6148C284.43 31.0628 284.577 31.4574 284.808 31.7986C285.038 32.1399 285.332 32.4118 285.688 32.6145C286.054 32.8064 286.451 32.9024 286.877 32.9024C287.368 32.9024 287.792 32.7798 288.15 32.5345C288.519 32.2892 288.8 31.9533 288.994 31.5267C289.199 31.0894 289.296 30.5935 289.285 30.039C289.274 29.4737 289.163 28.9778 288.952 28.5512C288.751 28.114 288.473 27.7727 288.116 27.5274C287.759 27.2822 287.34 27.1595 286.86 27.1595C286.391 27.1595 285.978 27.2875 285.62 27.5434C285.262 27.7994 284.981 28.1567 284.777 28.6152C284.573 29.0631 284.476 29.5857 284.488 30.1829L284.624 37.1096ZM299.004 34.0062H297.548L297.517 32.4385L297.462 32.0706L297.403 29.0951C297.391 28.4766 297.195 27.9914 296.815 27.6394C296.434 27.2768 295.919 27.0955 295.268 27.0955C294.415 27.0955 293.675 27.4475 293.049 28.1513L292.101 27.1595C293.012 26.253 294.101 25.7998 295.371 25.7998C296.075 25.7998 296.685 25.9331 297.203 26.1997C297.731 26.4663 298.143 26.8449 298.441 27.3355C298.738 27.8154 298.894 28.3859 298.907 29.0472L299.004 34.0062ZM294.865 34.2621C294.3 34.2621 293.796 34.1555 293.355 33.9422C292.924 33.7183 292.582 33.4143 292.329 33.0304C292.076 32.6465 291.945 32.2092 291.935 31.7186C291.919 30.8975 292.221 30.2576 292.841 29.799C293.472 29.3298 294.326 29.0951 295.403 29.0951H297.547L297.57 30.2309H295.57C294.93 30.2309 294.431 30.3589 294.073 30.6148C293.726 30.8601 293.557 31.2067 293.566 31.6546C293.574 32.0599 293.719 32.3905 294.001 32.6465C294.294 32.8917 294.68 33.0144 295.16 33.0144C295.619 33.0144 296.028 32.9131 296.386 32.7104C296.745 32.5078 297.033 32.2305 297.25 31.8786C297.467 31.5267 297.587 31.1214 297.61 30.6628L298.112 30.9348C298.124 31.5853 297.992 32.1612 297.714 32.6625C297.446 33.1637 297.064 33.5583 296.569 33.8462C296.084 34.1235 295.516 34.2621 294.865 34.2621ZM303.657 34.2621C302.143 34.2621 300.949 33.7556 300.076 32.7424L301.016 31.7346C301.312 32.1399 301.67 32.4438 302.09 32.6465C302.509 32.8384 302.975 32.9344 303.487 32.9344C304.063 32.9344 304.515 32.8224 304.841 32.5985C305.167 32.3638 305.326 32.0439 305.318 31.6387C305.303 30.9028 304.752 30.5349 303.664 30.5349H302.08L302.056 29.3191H303.64C304.099 29.3191 304.449 29.2284 304.691 29.0472C304.943 28.8659 305.066 28.6099 305.06 28.2793C305.053 27.9167 304.898 27.6341 304.595 27.4315C304.293 27.2288 303.885 27.1275 303.373 27.1275C302.424 27.1275 301.669 27.5114 301.108 28.2793L300.144 27.2875C300.989 26.2957 302.073 25.7998 303.395 25.7998C304.035 25.7998 304.597 25.8958 305.081 26.0877C305.565 26.2797 305.943 26.5463 306.217 26.8876C306.501 27.2288 306.647 27.6288 306.656 28.0873C306.665 28.5459 306.545 28.9298 306.295 29.2391C306.045 29.5484 305.665 29.783 305.157 29.943L305.151 29.671C305.72 29.8417 306.157 30.1029 306.463 30.4549C306.768 30.8068 306.926 31.2281 306.936 31.7186C306.945 32.2092 306.804 32.6465 306.513 33.0304C306.233 33.4143 305.844 33.7183 305.347 33.9422C304.861 34.1555 304.297 34.2621 303.657 34.2621ZM310.218 37.1096H308.618L308.401 26.0557H309.985L310.032 28.4873H309.68C309.745 27.9647 309.912 27.5061 310.181 27.1115C310.461 26.7063 310.818 26.3863 311.25 26.1517C311.694 25.9171 312.188 25.7998 312.732 25.7998C313.446 25.7998 314.084 25.9811 314.646 26.3437C315.208 26.7063 315.66 27.2075 316.004 27.8474C316.347 28.4873 316.527 29.2178 316.543 30.039C316.559 30.8601 316.403 31.5907 316.074 32.2305C315.755 32.8597 315.312 33.3557 314.743 33.7183C314.185 34.0808 313.548 34.2621 312.834 34.2621C312.172 34.2621 311.594 34.1182 311.097 33.8302C310.611 33.5316 310.236 33.1317 309.97 32.6305C309.714 32.1186 309.607 31.548 309.648 30.9188L309.962 30.6148C310.024 31.0628 310.171 31.4574 310.401 31.7986C310.632 32.1399 310.925 32.4118 311.281 32.6145C311.648 32.8064 312.044 32.9024 312.471 32.9024C312.962 32.9024 313.386 32.7798 313.744 32.5345C314.112 32.2892 314.394 31.9533 314.588 31.5267C314.793 31.0894 314.89 30.5935 314.879 30.039C314.868 29.4737 314.757 28.9778 314.546 28.5512C314.345 28.114 314.066 27.7727 313.709 27.5274C313.353 27.2822 312.934 27.1595 312.454 27.1595C311.985 27.1595 311.571 27.2875 311.214 27.5434C310.856 27.7994 310.575 28.1567 310.371 28.6152C310.166 29.0631 310.07 29.5857 310.082 30.1829L310.218 37.1096ZM324.598 34.0062H323.142L323.111 32.4385L323.056 32.0706L322.997 29.0951C322.985 28.4766 322.789 27.9914 322.409 27.6394C322.028 27.2768 321.513 27.0955 320.862 27.0955C320.009 27.0955 319.269 27.4475 318.643 28.1513L317.695 27.1595C318.605 26.253 319.695 25.7998 320.965 25.7998C321.669 25.7998 322.279 25.9331 322.796 26.1997C323.324 26.4663 323.737 26.8449 324.035 27.3355C324.332 27.8154 324.487 28.3859 324.5 29.0472L324.598 34.0062ZM320.459 34.2621C319.893 34.2621 319.39 34.1555 318.948 33.9422C318.517 33.7183 318.175 33.4143 317.923 33.0304C317.67 32.6465 317.538 32.2092 317.529 31.7186C317.513 30.8975 317.815 30.2576 318.435 29.799C319.066 29.3298 319.92 29.0951 320.997 29.0951H323.141L323.164 30.2309H321.164C320.524 30.2309 320.025 30.3589 319.667 30.6148C319.32 30.8601 319.151 31.2067 319.159 31.6546C319.167 32.0599 319.313 32.3905 319.595 32.6465C319.888 32.8917 320.274 33.0144 320.754 33.0144C321.213 33.0144 321.622 32.9131 321.98 32.7104C322.339 32.5078 322.627 32.2305 322.844 31.8786C323.061 31.5267 323.181 31.1214 323.204 30.6628L323.705 30.9348C323.718 31.5853 323.585 32.1612 323.307 32.6625C323.04 33.1637 322.658 33.5583 322.163 33.8462C321.677 34.1235 321.109 34.2621 320.459 34.2621ZM330.003 34.2621C328.734 34.2621 327.748 33.7822 327.047 32.8224C326.356 31.8519 325.992 30.4549 325.957 28.6312C325.922 26.8822 326.174 25.5598 326.711 24.664C327.258 23.7682 328.144 23.2243 329.367 23.0323L332.684 22.4884L332.935 23.8801L329.635 24.456C329.093 24.552 328.659 24.744 328.334 25.0319C328.009 25.3092 327.777 25.7251 327.638 26.2797C327.5 26.8342 327.429 27.5808 327.426 28.5193L327.084 29.0312C327.149 28.4979 327.326 28.0287 327.617 27.6234C327.908 27.2182 328.28 26.9036 328.734 26.6796C329.199 26.4556 329.709 26.3437 330.264 26.3437C330.957 26.3437 331.563 26.5036 332.081 26.8236C332.599 27.1329 333.003 27.5754 333.291 28.1513C333.59 28.7165 333.747 29.3884 333.763 30.1669C333.779 30.9881 333.633 31.708 333.325 32.3265C333.028 32.9451 332.595 33.425 332.025 33.7662C331.456 34.0968 330.782 34.2621 330.003 34.2621ZM329.928 32.8864C330.622 32.8864 331.155 32.6465 331.53 32.1665C331.915 31.6866 332.1 31.0414 332.084 30.2309C332.068 29.4204 331.875 28.7965 331.503 28.3593C331.132 27.922 330.616 27.7034 329.954 27.7034C329.325 27.7034 328.791 27.9167 328.351 28.3433C327.911 28.7592 327.623 29.3138 327.488 30.007L327.269 29.4791L327.631 29.1751C327.643 29.751 327.69 30.2682 327.774 30.7268C327.868 31.1854 328.004 31.5747 328.181 31.8946C328.368 32.2145 328.602 32.4598 328.883 32.6305C329.175 32.8011 329.523 32.8864 329.928 32.8864ZM338.989 34.2621C338.211 34.2621 337.509 34.0808 336.883 33.7183C336.268 33.3557 335.778 32.8544 335.413 32.2145C335.059 31.5747 334.874 30.8495 334.859 30.039C334.842 29.2178 334.999 28.4873 335.327 27.8474C335.667 27.2075 336.137 26.7063 336.738 26.3437C337.349 25.9811 338.045 25.7998 338.823 25.7998C339.623 25.7998 340.331 25.9811 340.946 26.3437C341.572 26.7063 342.062 27.2075 342.415 27.8474C342.78 28.4873 342.97 29.2125 342.986 30.023C343.002 30.8441 342.841 31.5747 342.501 32.2145C342.172 32.8544 341.702 33.3557 341.091 33.7183C340.49 34.0808 339.789 34.2621 338.989 34.2621ZM338.979 32.9024C339.459 32.9024 339.872 32.7798 340.22 32.5345C340.567 32.2892 340.837 31.9533 341.032 31.5267C341.226 31.0894 341.317 30.5935 341.307 30.039C341.295 29.4631 341.184 28.9672 340.973 28.5512C340.773 28.1247 340.489 27.7887 340.122 27.5434C339.765 27.2982 339.346 27.1755 338.866 27.1755C338.386 27.1755 337.967 27.2982 337.61 27.5434C337.262 27.7887 336.992 28.1247 336.797 28.5512C336.613 28.9672 336.527 29.4631 336.539 30.039C336.549 30.5935 336.655 31.0894 336.856 31.5267C337.067 31.9533 337.351 32.2892 337.708 32.5345C338.075 32.7798 338.499 32.9024 338.979 32.9024ZM343.268 27.3835L343.242 26.0557L350.106 26.0557L350.132 27.3835L343.268 27.3835ZM346.038 34.0062L345.892 26.5676H347.476L347.622 34.0062H346.038ZM351.525 34.0062L351.369 26.0557H352.969L353.125 34.0062H351.525ZM356.565 34.0062L352.516 29.879H352.676L356.169 26.0557H358.153L354.331 30.1989L354.076 29.4311L358.661 34.0062H356.565ZM365.107 31.6706L366.071 32.6785C365.665 33.2117 365.177 33.6116 364.607 33.8782C364.046 34.1342 363.43 34.2621 362.758 34.2621C361.926 34.2621 361.192 34.0808 360.555 33.7183C359.93 33.3557 359.434 32.8544 359.07 32.2145C358.705 31.5747 358.515 30.8495 358.499 30.039C358.483 29.2284 358.64 28.5033 358.968 27.8634C359.308 27.2235 359.767 26.7223 360.347 26.3597C360.937 25.9864 361.605 25.7998 362.352 25.7998C363.077 25.7998 363.721 25.9811 364.283 26.3437C364.844 26.6956 365.286 27.1862 365.607 27.8154C365.94 28.4446 366.114 29.1645 366.13 29.975L366.132 30.071H364.548L364.545 29.911C364.528 29.0578 364.323 28.3806 363.929 27.8794C363.546 27.3781 363.023 27.1275 362.362 27.1275C361.914 27.1275 361.522 27.2448 361.185 27.4795C360.848 27.7141 360.588 28.05 360.405 28.4873C360.221 28.9245 360.135 29.4311 360.147 30.007C360.158 30.5935 360.269 31.1054 360.481 31.5427C360.702 31.9693 361.008 32.3105 361.397 32.5665C361.796 32.8118 362.268 32.9344 362.812 32.9344C363.292 32.9344 363.722 32.8278 364.102 32.6145C364.482 32.4012 364.817 32.0866 365.107 31.6706ZM366.141 30.5509H359.645L359.623 29.3991H365.879L366.13 29.975L366.141 30.5509Z" fill="white"/>
<path d="M378.328 26.1571C378.366 26.1147 378.413 26.0822 378.465 26.0623C378.517 26.0425 378.572 26.0358 378.627 26.0428C378.681 26.0498 378.734 26.0703 378.779 26.1026C378.825 26.135 378.863 26.1783 378.89 26.229C379.065 26.5611 379.321 26.8342 379.596 27.0543C380.208 27.5444 380.958 27.7998 381.725 27.8204L383.843 27.8773C384.023 27.8822 384.111 27.7772 384.143 27.6197C384.162 27.519 384.155 27.4148 384.122 27.3181C384.09 27.2214 384.034 27.1359 383.959 27.0703C383.407 26.5698 383.02 25.8952 382.855 25.1446C382.69 24.3939 382.756 23.6064 383.042 22.8964C383.329 22.1864 383.821 21.5909 384.447 21.1966C385.074 20.8022 385.803 20.6296 386.527 20.7036C388.051 20.8557 389.278 22.0861 389.552 23.6407C389.558 23.6762 389.574 23.7089 389.598 23.735C389.621 23.761 389.652 23.7793 389.685 23.7876C390.128 23.8944 390.577 23.9699 391.029 24.0135C391.058 24.0165 391.086 24.027 391.11 24.0441C391.134 24.0612 391.154 24.0845 391.168 24.1117C391.181 24.1389 391.189 24.1693 391.188 24.2002C391.188 24.2311 391.181 24.2615 391.167 24.2888C390.773 25.0744 390.101 25.6229 389.505 25.9824C389.261 26.1281 389.046 26.3221 388.871 26.5538L388.859 26.5698C388.747 26.7204 388.692 26.9103 388.707 27.1013C388.721 27.2924 388.803 27.4704 388.936 27.5996C390.283 28.9385 390.534 30.1423 390.503 31.1654C390.462 32.5334 389.719 33.6695 388.588 34.3329C385.875 35.9237 382.271 35.3902 380.584 34.6402C379.292 34.0655 378.074 33.1112 377.566 31.7276C376.527 28.8971 377.604 26.9683 378.328 26.1571ZM387.85 24.3577C387.966 24.3608 388.08 24.3275 388.178 24.2618C388.276 24.1961 388.354 24.1011 388.402 23.9887C388.449 23.8764 388.464 23.7517 388.445 23.6306C388.425 23.5094 388.372 23.3972 388.293 23.3081C388.213 23.219 388.11 23.157 387.997 23.13C387.884 23.1029 387.766 23.1121 387.657 23.1562C387.549 23.2004 387.455 23.2776 387.388 23.378C387.321 23.4785 387.283 23.5977 387.28 23.7206C387.275 23.8854 387.333 24.0451 387.44 24.1646C387.547 24.2841 387.694 24.3535 387.85 24.3577Z" fill="white"/>
<path d="M403.651 34.0062L403.426 22.5684H407.81C408.504 22.5684 409.109 22.6964 409.626 22.9523C410.153 23.1976 410.566 23.5442 410.862 23.9921C411.17 24.44 411.33 24.9679 411.342 25.5758C411.353 26.141 411.213 26.6369 410.923 27.0635C410.643 27.4901 410.244 27.8261 409.727 28.0713C409.219 28.306 408.619 28.4233 407.925 28.4233H405.333L405.318 27.6394H408.134C408.891 27.6394 409.55 27.7674 410.11 28.0233C410.669 28.2686 411.103 28.6259 411.411 29.0951C411.729 29.5644 411.895 30.1189 411.907 30.7588C411.92 31.3987 411.776 31.9639 411.477 32.4545C411.177 32.9451 410.752 33.329 410.203 33.6063C409.654 33.8729 409.006 34.0062 408.259 34.0062H403.651ZM405.271 32.5985H408.247C408.877 32.5985 409.369 32.4278 409.725 32.0866C410.081 31.7453 410.254 31.2814 410.242 30.6948C410.231 30.1189 410.041 29.6657 409.671 29.3351C409.302 28.9938 408.803 28.8232 408.173 28.8232H405.037L405.01 27.4315H407.842C408.429 27.4315 408.884 27.2768 409.209 26.9676C409.533 26.6583 409.69 26.2317 409.68 25.6878C409.669 25.1652 409.491 24.7493 409.143 24.44C408.806 24.1308 408.35 23.9761 407.774 23.9761H405.102L405.271 32.5985ZM418.445 37.1096H416.845L416.628 26.0557H418.212L418.26 28.4873H417.908C417.972 27.9647 418.139 27.5061 418.409 27.1115C418.689 26.7063 419.045 26.3863 419.478 26.1517C419.921 25.9171 420.415 25.7998 420.959 25.7998C421.674 25.7998 422.312 25.9811 422.874 26.3437C423.436 26.7063 423.888 27.2075 424.231 27.8474C424.574 28.4873 424.754 29.2178 424.77 30.039C424.786 30.8601 424.63 31.5907 424.301 32.2305C423.983 32.8597 423.539 33.3557 422.971 33.7183C422.412 34.0808 421.776 34.2621 421.061 34.2621C420.4 34.2621 419.821 34.1182 419.325 33.8302C418.839 33.5316 418.463 33.1317 418.197 32.6305C417.942 32.1186 417.835 31.548 417.876 30.9188L418.19 30.6148C418.252 31.0628 418.398 31.4574 418.629 31.7986C418.86 32.1399 419.153 32.4118 419.509 32.6145C419.875 32.8064 420.272 32.9024 420.699 32.9024C421.189 32.9024 421.613 32.7798 421.971 32.5345C422.34 32.2892 422.621 31.9533 422.816 31.5267C423.02 31.0894 423.117 30.5935 423.106 30.039C423.095 29.4737 422.984 28.9778 422.773 28.5512C422.572 28.114 422.294 27.7727 421.937 27.5274C421.58 27.2822 421.162 27.1595 420.682 27.1595C420.212 27.1595 419.799 27.2875 419.441 27.5434C419.084 27.7994 418.803 28.1567 418.598 28.6152C418.394 29.0631 418.297 29.5857 418.309 30.1829L418.445 37.1096ZM432.825 34.0062H431.369L431.338 32.4385L431.283 32.0706L431.225 29.0951C431.213 28.4766 431.016 27.9914 430.636 27.6394C430.256 27.2768 429.74 27.0955 429.089 27.0955C428.236 27.0955 427.496 27.4475 426.87 28.1513L425.923 27.1595C426.833 26.253 427.923 25.7998 429.192 25.7998C429.896 25.7998 430.507 25.9331 431.024 26.1997C431.552 26.4663 431.965 26.8449 432.262 27.3355C432.56 27.8154 432.715 28.3859 432.728 29.0472L432.825 34.0062ZM428.686 34.2621C428.121 34.2621 427.617 34.1555 427.176 33.9422C426.745 33.7183 426.403 33.4143 426.15 33.0304C425.897 32.6465 425.766 32.2092 425.756 31.7186C425.74 30.8975 426.042 30.2576 426.663 29.799C427.293 29.3298 428.147 29.0951 429.225 29.0951H431.369L431.391 30.2309H429.391C428.751 30.2309 428.252 30.3589 427.895 30.6148C427.547 30.8601 427.378 31.2067 427.387 31.6546C427.395 32.0599 427.54 32.3905 427.823 32.6465C428.115 32.8917 428.502 33.0144 428.982 33.0144C429.44 33.0144 429.849 32.9131 430.208 32.7104C430.566 32.5078 430.854 32.2305 431.071 31.8786C431.289 31.5267 431.409 31.1214 431.432 30.6628L431.933 30.9348C431.946 31.5853 431.813 32.1612 431.535 32.6625C431.267 33.1637 430.886 33.5583 430.39 33.8462C429.905 34.1235 429.337 34.2621 428.686 34.2621ZM437.479 34.2621C435.964 34.2621 434.77 33.7556 433.897 32.7424L434.837 31.7346C435.133 32.1399 435.491 32.4438 435.911 32.6465C436.331 32.8384 436.797 32.9344 437.309 32.9344C437.885 32.9344 438.336 32.8224 438.662 32.5985C438.988 32.3638 439.147 32.0439 439.139 31.6387C439.125 30.9028 438.574 30.5349 437.486 30.5349H435.902L435.878 29.3191H437.462C437.92 29.3191 438.271 29.2284 438.512 29.0472C438.765 28.8659 438.888 28.6099 438.881 28.2793C438.874 27.9167 438.719 27.6341 438.417 27.4315C438.114 27.2288 437.707 27.1275 437.195 27.1275C436.245 27.1275 435.49 27.5114 434.929 28.2793L433.966 27.2875C434.81 26.2957 435.894 25.7998 437.217 25.7998C437.857 25.7998 438.418 25.8958 438.902 26.0877C439.386 26.2797 439.765 26.5463 440.038 26.8876C440.322 27.2288 440.468 27.6288 440.477 28.0873C440.486 28.5459 440.366 28.9298 440.116 29.2391C439.866 29.5484 439.487 29.783 438.978 29.943L438.973 29.671C439.541 29.8417 439.978 30.1029 440.284 30.4549C440.59 30.8068 440.747 31.2281 440.757 31.7186C440.766 32.2092 440.626 32.6465 440.335 33.0304C440.054 33.4143 439.665 33.7183 439.168 33.9422C438.682 34.1555 438.119 34.2621 437.479 34.2621ZM444.039 37.1096H442.439L442.222 26.0557H443.806L443.854 28.4873H443.502C443.566 27.9647 443.733 27.5061 444.003 27.1115C444.283 26.7063 444.639 26.3863 445.072 26.1517C445.515 25.9171 446.009 25.7998 446.553 25.7998C447.267 25.7998 447.906 25.9811 448.467 26.3437C449.029 26.7063 449.482 27.2075 449.825 27.8474C450.168 28.4873 450.348 29.2178 450.364 30.039C450.38 30.8601 450.224 31.5907 449.895 32.2305C449.577 32.8597 449.133 33.3557 448.564 33.7183C448.006 34.0808 447.37 34.2621 446.655 34.2621C445.994 34.2621 445.415 34.1182 444.919 33.8302C444.433 33.5316 444.057 33.1317 443.791 32.6305C443.536 32.1186 443.428 31.548 443.469 30.9188L443.783 30.6148C443.845 31.0628 443.992 31.4574 444.223 31.7986C444.453 32.1399 444.747 32.4118 445.103 32.6145C445.469 32.8064 445.866 32.9024 446.292 32.9024C446.783 32.9024 447.207 32.7798 447.565 32.5345C447.934 32.2892 448.215 31.9533 448.409 31.5267C448.614 31.0894 448.711 30.5935 448.7 30.039C448.689 29.4737 448.578 28.9778 448.367 28.5512C448.166 28.114 447.888 27.7727 447.531 27.5274C447.174 27.2822 446.756 27.1595 446.276 27.1595C445.806 27.1595 445.393 27.2875 445.035 27.5434C444.677 27.7994 444.396 28.1567 444.192 28.6152C443.988 29.0631 443.891 29.5857 443.903 30.1829L444.039 37.1096ZM458.419 34.0062H456.963L456.932 32.4385L456.877 32.0706L456.819 29.0951C456.806 28.4766 456.61 27.9914 456.23 27.6394C455.849 27.2768 455.334 27.0955 454.683 27.0955C453.83 27.0955 453.09 27.4475 452.464 28.1513L451.517 27.1595C452.427 26.253 453.516 25.7998 454.786 25.7998C455.49 25.7998 456.1 25.9331 456.618 26.1997C457.146 26.4663 457.558 26.8449 457.856 27.3355C458.153 27.8154 458.309 28.3859 458.322 29.0472L458.419 34.0062ZM454.28 34.2621C453.715 34.2621 453.211 34.1555 452.77 33.9422C452.339 33.7183 451.997 33.4143 451.744 33.0304C451.491 32.6465 451.36 32.2092 451.35 31.7186C451.334 30.8975 451.636 30.2576 452.256 29.799C452.887 29.3298 453.741 29.0951 454.819 29.0951H456.963L456.985 30.2309H454.985C454.345 30.2309 453.846 30.3589 453.488 30.6148C453.141 30.8601 452.972 31.2067 452.981 31.6546C452.989 32.0599 453.134 32.3905 453.416 32.6465C453.709 32.8917 454.095 33.0144 454.575 33.0144C455.034 33.0144 455.443 32.9131 455.802 32.7104C456.16 32.5078 456.448 32.2305 456.665 31.8786C456.882 31.5267 457.002 31.1214 457.025 30.6628L457.527 30.9348C457.539 31.5853 457.407 32.1612 457.129 32.6625C456.861 33.1637 456.48 33.5583 455.984 33.8462C455.499 34.1235 454.931 34.2621 454.28 34.2621ZM463.824 34.2621C462.555 34.2621 461.57 33.7822 460.868 32.8224C460.177 31.8519 459.814 30.4549 459.778 28.6312C459.744 26.8822 459.995 25.5598 460.532 24.664C461.08 23.7682 461.965 23.2243 463.188 23.0323L466.505 22.4884L466.757 23.8801L463.456 24.456C462.914 24.552 462.48 24.744 462.155 25.0319C461.83 25.3092 461.598 25.7251 461.46 26.2797C461.321 26.8342 461.251 27.5808 461.248 28.5193L460.906 29.0312C460.97 28.4979 461.147 28.0287 461.438 27.6234C461.729 27.2182 462.101 26.9036 462.556 26.6796C463.021 26.4556 463.53 26.3437 464.085 26.3437C464.778 26.3437 465.384 26.5036 465.902 26.8236C466.42 27.1329 466.824 27.5754 467.112 28.1513C467.412 28.7165 467.569 29.3884 467.584 30.1669C467.6 30.9881 467.454 31.708 467.146 32.3265C466.849 32.9451 466.416 33.425 465.847 33.7662C465.277 34.0968 464.603 34.2621 463.824 34.2621ZM463.749 32.8864C464.443 32.8864 464.977 32.6465 465.351 32.1665C465.737 31.6866 465.921 31.0414 465.905 30.2309C465.889 29.4204 465.696 28.7965 465.325 28.3593C464.953 27.922 464.437 27.7034 463.776 27.7034C463.146 27.7034 462.612 27.9167 462.172 28.3433C461.732 28.7592 461.445 29.3138 461.309 30.007L461.091 29.4791L461.453 29.1751C461.464 29.751 461.511 30.2682 461.595 30.7268C461.689 31.1854 461.825 31.5747 462.002 31.8946C462.19 32.2145 462.424 32.4598 462.704 32.6305C462.996 32.8011 463.344 32.8864 463.749 32.8864ZM472.811 34.2621C472.032 34.2621 471.33 34.0808 470.704 33.7183C470.089 33.3557 469.599 32.8544 469.235 32.2145C468.881 31.5747 468.696 30.8495 468.68 30.039C468.664 29.2178 468.82 28.4873 469.149 27.8474C469.488 27.2075 469.958 26.7063 470.559 26.3437C471.171 25.9811 471.866 25.7998 472.645 25.7998C473.445 25.7998 474.152 25.9811 474.767 26.3437C475.393 26.7063 475.883 27.2075 476.237 27.8474C476.601 28.4873 476.792 29.2125 476.807 30.023C476.824 30.8441 476.662 31.5747 476.323 32.2145C475.994 32.8544 475.524 33.3557 474.912 33.7183C474.311 34.0808 473.611 34.2621 472.811 34.2621ZM472.8 32.9024C473.28 32.9024 473.694 32.7798 474.041 32.5345C474.388 32.2892 474.659 31.9533 474.853 31.5267C475.047 31.0894 475.139 30.5935 475.128 30.039C475.116 29.4631 475.005 28.9672 474.795 28.5512C474.594 28.1247 474.31 27.7887 473.943 27.5434C473.586 27.2982 473.168 27.1755 472.688 27.1755C472.208 27.1755 471.789 27.2982 471.431 27.5434C471.084 27.7887 470.813 28.1247 470.619 28.5512C470.435 28.9672 470.348 29.4631 470.36 30.039C470.371 30.5935 470.476 31.0894 470.677 31.5267C470.888 31.9533 471.172 32.2892 471.529 32.5345C471.896 32.7798 472.32 32.9024 472.8 32.9024ZM477.089 27.3835L477.063 26.0557L483.927 26.0557L483.953 27.3835L477.089 27.3835ZM479.859 34.0062L479.713 26.5676H481.297L481.443 34.0062H479.859ZM485.347 34.0062L485.191 26.0557H486.791L486.947 34.0062H485.347ZM490.387 34.0062L486.338 29.879H486.498L489.991 26.0557H491.975L488.152 30.1989L487.897 29.4311L492.483 34.0062H490.387ZM498.928 31.6706L499.892 32.6785C499.487 33.2117 498.999 33.6116 498.428 33.8782C497.868 34.1342 497.251 34.2621 496.579 34.2621C495.747 34.2621 495.013 34.0808 494.377 33.7183C493.751 33.3557 493.256 32.8544 492.891 32.2145C492.527 31.5747 492.336 30.8495 492.32 30.039C492.305 29.2284 492.461 28.5033 492.79 27.8634C493.129 27.2235 493.589 26.7223 494.168 26.3597C494.758 25.9864 495.427 25.7998 496.173 25.7998C496.899 25.7998 497.542 25.9811 498.104 26.3437C498.665 26.6956 499.107 27.1862 499.429 27.8154C499.761 28.4446 499.935 29.1645 499.951 29.975L499.953 30.071H498.369L498.366 29.911C498.349 29.0578 498.144 28.3806 497.75 27.8794C497.367 27.3781 496.845 27.1275 496.183 27.1275C495.735 27.1275 495.343 27.2448 495.006 27.4795C494.669 27.7141 494.409 28.05 494.226 28.4873C494.043 28.9245 493.956 29.4311 493.968 30.007C493.979 30.5935 494.091 31.1054 494.302 31.5427C494.524 31.9693 494.829 32.3105 495.218 32.5665C495.618 32.8118 496.089 32.9344 496.633 32.9344C497.113 32.9344 497.543 32.8278 497.923 32.6145C498.303 32.4012 498.638 32.0866 498.928 31.6706ZM499.962 30.5509H493.466L493.444 29.3991H499.7L499.951 29.975L499.962 30.5509Z" fill="white"/>
<path d="M512.15 26.1571C512.187 26.1147 512.234 26.0822 512.286 26.0623C512.338 26.0425 512.393 26.0358 512.448 26.0428C512.503 26.0498 512.555 26.0703 512.601 26.1026C512.646 26.135 512.684 26.1783 512.711 26.229C512.886 26.5611 513.143 26.8342 513.418 27.0543C514.029 27.5444 514.779 27.7998 515.547 27.8204L517.664 27.8773C517.844 27.8822 517.932 27.7772 517.964 27.6197C517.983 27.519 517.976 27.4148 517.944 27.3181C517.911 27.2214 517.855 27.1359 517.78 27.0703C517.228 26.5698 516.842 25.8952 516.677 25.1446C516.512 24.3939 516.577 23.6064 516.863 22.8964C517.15 22.1864 517.642 21.5909 518.269 21.1966C518.895 20.8022 519.624 20.6296 520.348 20.7036C521.872 20.8557 523.1 22.0861 523.373 23.6407C523.38 23.6762 523.396 23.7089 523.419 23.735C523.443 23.761 523.473 23.7793 523.506 23.7876C523.949 23.8944 524.398 23.9699 524.85 24.0135C524.879 24.0165 524.907 24.027 524.931 24.0441C524.956 24.0612 524.975 24.0845 524.989 24.1117C525.003 24.1389 525.01 24.1693 525.01 24.2002C525.01 24.2311 525.002 24.2615 524.989 24.2888C524.594 25.0744 523.922 25.6229 523.326 25.9824C523.082 26.1281 522.867 26.3221 522.692 26.5538L522.68 26.5698C522.568 26.7204 522.514 26.9103 522.528 27.1013C522.542 27.2924 522.624 27.4704 522.757 27.5996C524.104 28.9385 524.355 30.1423 524.324 31.1654C524.283 32.5334 523.541 33.6695 522.409 34.3329C519.696 35.9237 516.092 35.3902 514.405 34.6402C513.113 34.0655 511.895 33.1112 511.387 31.7276C510.348 28.8971 511.426 26.9683 512.15 26.1571ZM521.671 24.3577C521.787 24.3608 521.901 24.3275 521.999 24.2618C522.098 24.1961 522.175 24.1011 522.223 23.9887C522.27 23.8764 522.285 23.7517 522.266 23.6306C522.247 23.5094 522.194 23.3972 522.114 23.3081C522.034 23.219 521.931 23.157 521.818 23.13C521.705 23.1029 521.587 23.1121 521.479 23.1562C521.37 23.2004 521.276 23.2776 521.209 23.378C521.142 23.4785 521.104 23.5977 521.101 23.7206C521.097 23.8854 521.154 24.0451 521.261 24.1646C521.368 24.2841 521.515 24.3535 521.671 24.3577Z" fill="white"/>
</g>
</g>
<defs>
<filter id="filter0_dddd_9001_5754" x="0.350586" y="0.0102539" width="553.803" height="75.0088" filterUnits="userSpaceOnUse" color-interpolation-filters="sRGB">
<feFlood flood-opacity="0" result="BackgroundImageFix"/>
<feColorMatrix in="SourceAlpha" type="matrix" values="0 0 0 0 0 0 0 0 0 0 0 0 0 0 0 0 0 0 127 0" result="hardAlpha"/>
<feOffset dy="10"/>
<feGaussianBlur stdDeviation="10"/>
<feComposite in2="hardAlpha" operator="out"/>
<feColorMatrix type="matrix" values="0 0 0 0 0 0 0 0 0 0 0 0 0 0 0 0 0 0 0.04 0"/>
<feBlend mode="normal" in2="BackgroundImageFix" result="effect1_dropShadow_9001_5754"/>
<feColorMatrix in="SourceAlpha" type="matrix" values="0 0 0 0 0 0 0 0 0 0 0 0 0 0 0 0 0 0 127 0" result="hardAlpha"/>
<feOffset dy="2"/>
<feGaussianBlur stdDeviation="3"/>
<feComposite in2="hardAlpha" operator="out"/>
<feColorMatrix type="matrix" values="0 0 0 0 0 0 0 0 0 0 0 0 0 0 0 0 0 0 0.04 0"/>
<feBlend mode="normal" in2="effect1_dropShadow_9001_5754" result="effect2_dropShadow_9001_5754"/>
<feColorMatrix in="SourceAlpha" type="matrix" values="0 0 0 0 0 0 0 0 0 0 0 0 0 0 0 0 0 0 127 0" result="hardAlpha"/>
<feOffset/>
<feGaussianBlur stdDeviation="0.5"/>
<feComposite in2="hardAlpha" operator="out"/>
<feColorMatrix type="matrix" values="0 0 0 0 0 0 0 0 0 0 0 0 0 0 0 0 0 0 0.04 0"/>
<feBlend mode="normal" in2="effect2_dropShadow_9001_5754" result="effect3_dropShadow_9001_5754"/>
<feColorMatrix in="SourceAlpha" type="matrix" values="0 0 0 0 0 0 0 0 0 0 0 0 0 0 0 0 0 0 127 0" result="hardAlpha"/>
<feOffset dx="2" dy="4"/>
<feGaussianBlur stdDeviation="8"/>
<feComposite in2="hardAlpha" operator="out"/>
<feColorMatrix type="matrix" values="0 0 0 0 0 0 0 0 0 0 0 0 0 0 0 0 0 0 0.13 0"/>
<feBlend mode="normal" in2="effect3_dropShadow_9001_5754" result="effect4_dropShadow_9001_5754"/>
<feBlend mode="normal" in="SourceGraphic" in2="effect4_dropShadow_9001_5754" result="shape"/>
</filter>
<clipPath id="clip0_9001_5754">
<rect width="513.155" height="33.0151" rx="16.5075" transform="matrix(1 0 0.0196347 0.999807 20.3506 12.0103)" fill="white"/>
</clipPath>
</defs>
</svg>
