<svg width="556" height="76" viewBox="0 0 556 76" fill="none" xmlns="http://www.w3.org/2000/svg">
<g filter="url(#filter0_dddd_9001_5734)">
<rect width="513.155" height="33.0151" rx="16.5075" transform="matrix(1 0 -0.0196347 0.999807 20.6367 12.8784)" fill="url(#paint0_linear_9001_5734)" shape-rendering="crispEdges"/>
<path d="M36.7894 34.8744L37.014 23.4366H41.398C42.0913 23.4366 42.6915 23.5645 43.1985 23.8205C43.7163 24.0658 44.1148 24.4124 44.394 24.8603C44.6839 25.3082 44.8229 25.8361 44.8109 26.444C44.7998 27.0092 44.6408 27.5051 44.3337 27.9317C44.0373 28.3583 43.6254 28.6942 43.0979 28.9395C42.5813 29.1741 41.9764 29.2914 41.283 29.2914H38.691L38.7064 28.5076H41.5224C42.2797 28.5076 42.9332 28.6356 43.4829 28.8915C44.0327 29.1368 44.4524 29.4941 44.7418 29.9633C45.0419 30.4325 45.1857 30.9871 45.1732 31.627C45.1606 32.2669 44.9948 32.8321 44.6759 33.3227C44.3569 33.8132 43.9173 34.1972 43.3572 34.4744C42.7973 34.7411 42.144 34.8744 41.3974 34.8744H36.7894ZM38.465 33.4666H41.441C42.0704 33.4666 42.5697 33.296 42.9391 32.9547C43.3084 32.6135 43.4989 32.1496 43.5104 31.563C43.5217 30.9871 43.3493 30.5339 42.9931 30.2033C42.6371 29.862 42.1445 29.6914 41.5152 29.6914H38.3792L38.4065 28.2996H41.2385C41.8252 28.2996 42.2869 28.145 42.6236 27.8357C42.9603 27.5264 43.1341 27.0999 43.1447 26.556C43.155 26.0334 42.9925 25.6175 42.6572 25.3082C42.3326 24.9989 41.8824 24.8443 41.3064 24.8443H38.6344L38.465 33.4666ZM51.4616 37.9778H49.8616L50.0786 26.9239H51.6626L51.6149 29.3554H51.2629C51.3478 28.8329 51.5328 28.3743 51.8179 27.9797C52.1139 27.5744 52.4828 27.2545 52.9248 27.0199C53.3774 26.7853 53.8757 26.6679 54.4197 26.6679C55.1343 26.6679 55.7654 26.8492 56.313 27.2118C56.8605 27.5744 57.2934 28.0757 57.6115 28.7155C57.9296 29.3554 58.0805 30.0859 58.0644 30.9071C58.0483 31.7283 57.8633 32.4588 57.5094 33.0987C57.1664 33.7279 56.7033 34.2238 56.1202 34.5864C55.5477 34.949 54.9041 35.1303 54.1895 35.1303C53.5281 35.1303 52.955 34.9863 52.47 34.6984C51.9958 34.3998 51.6357 33.9999 51.3895 33.4986C51.1542 32.9867 51.0694 32.4162 51.1351 31.787L51.4611 31.483C51.5056 31.9309 51.6366 32.3255 51.8539 32.6668C52.0712 33.0081 52.3538 33.28 52.7018 33.4826C53.0607 33.6746 53.4535 33.7706 53.8802 33.7706C54.3708 33.7706 54.7999 33.6479 55.1674 33.4026C55.5456 33.1574 55.8402 32.8214 56.0512 32.3948C56.2731 31.9576 56.3895 31.4617 56.4004 30.9071C56.4115 30.3419 56.3199 29.846 56.1256 29.4194C55.9422 28.9822 55.6769 28.6409 55.3297 28.3956C54.9826 28.1503 54.569 28.0277 54.089 28.0277C53.6196 28.0277 53.2011 28.1557 52.8334 28.4116C52.4657 28.6676 52.1707 29.0248 51.9484 29.4834C51.7262 29.9313 51.6093 30.4539 51.5976 31.0511L51.4616 37.9778ZM65.9635 34.8744H64.5075L64.5383 33.3067L64.4975 32.9387L64.556 29.9633C64.5681 29.3448 64.391 28.8595 64.0245 28.5076C63.6583 28.145 63.1499 27.9637 62.4992 27.9637C61.6459 27.9637 60.8923 28.3156 60.2385 29.0195L59.33 28.0277C60.2758 27.1212 61.3833 26.6679 62.6527 26.6679C63.3567 26.6679 63.962 26.8012 64.4688 27.0679C64.9862 27.3345 65.3841 27.7131 65.6625 28.2036C65.9411 28.6836 66.0739 29.2541 66.0609 29.9153L65.9635 34.8744ZM61.8145 35.1303C61.2491 35.1303 60.7499 35.0237 60.3168 34.8104C59.8945 34.5864 59.5645 34.2825 59.3267 33.8985C59.0889 33.5146 58.9748 33.0774 58.9844 32.5868C59.0006 31.7656 59.3278 31.1257 59.9661 30.6672C60.6153 30.1979 61.4786 29.9633 62.556 29.9633H64.7L64.6776 31.0991H62.6776C62.0376 31.0991 61.5338 31.2271 61.1661 31.483C60.8093 31.7283 60.6265 32.0749 60.6177 32.5228C60.6097 32.9281 60.7419 33.2587 61.0142 33.5146C61.2974 33.7599 61.679 33.8826 62.159 33.8826C62.6176 33.8826 63.0303 33.7812 63.397 33.5786C63.7636 33.376 64.0624 33.0987 64.2933 32.7468C64.5242 32.3948 64.6602 31.9896 64.7012 31.531L65.1918 31.803C65.179 32.4535 65.0237 33.0294 64.7259 33.5306C64.4387 34.0319 64.0416 34.4264 63.5346 34.7144C63.0385 34.9917 62.4651 35.1303 61.8145 35.1303ZM70.607 35.1303C69.0923 35.1303 67.9183 34.6237 67.0848 33.6106L68.0646 32.6028C68.3447 33.0081 68.6907 33.312 69.1027 33.5146C69.5149 33.7066 69.9771 33.8026 70.4891 33.8026C71.0651 33.8026 71.5206 33.6906 71.8557 33.4666C72.1909 33.232 72.3625 32.9121 72.3705 32.5068C72.385 31.771 71.8482 31.403 70.7602 31.403H69.1762L69.2001 30.1873H70.7841C71.2427 30.1873 71.5965 30.0966 71.8454 29.9153C72.105 29.734 72.238 29.4781 72.2445 29.1475C72.2516 28.7849 72.1078 28.5023 71.8131 28.2996C71.5184 28.097 71.1151 27.9957 70.6031 27.9957C69.6538 27.9957 68.8836 28.3796 68.2925 29.1475L67.368 28.1557C68.2514 27.1638 69.3545 26.6679 70.6772 26.6679C71.3172 26.6679 71.8753 26.7639 72.3515 26.9559C72.8277 27.1478 73.1958 27.4145 73.4558 27.7557C73.7264 28.097 73.8572 28.4969 73.8482 28.9555C73.8392 29.4141 73.7037 29.798 73.4416 30.1073C73.1796 30.4166 72.7909 30.6512 72.2758 30.8111L72.2811 30.5392C72.8431 30.7098 73.27 30.9711 73.5617 31.323C73.8535 31.675 73.9946 32.0962 73.9849 32.5868C73.9753 33.0774 73.8174 33.5146 73.5112 33.8985C73.2156 34.2825 72.815 34.5864 72.3093 34.8104C71.8144 35.0237 71.247 35.1303 70.607 35.1303ZM77.0553 37.9778H75.4553L75.6724 26.9239H77.2564L77.2086 29.3554H76.8566C76.9416 28.8329 77.1266 28.3743 77.4117 27.9797C77.7076 27.5744 78.0766 27.2545 78.5185 27.0199C78.9711 26.7853 79.4694 26.6679 80.0134 26.6679C80.7281 26.6679 81.3592 26.8492 81.9067 27.2118C82.4543 27.5744 82.8871 28.0757 83.2052 28.7155C83.5233 29.3554 83.6743 30.0859 83.6582 30.9071C83.642 31.7283 83.457 32.4588 83.1031 33.0987C82.7601 33.7279 82.297 34.2238 81.7139 34.5864C81.1415 34.949 80.4979 35.1303 79.7832 35.1303C79.1219 35.1303 78.5487 34.9863 78.0637 34.6984C77.5896 34.3998 77.2294 33.9999 76.9833 33.4986C76.748 32.9867 76.6632 32.4162 76.7289 31.787L77.0549 31.483C77.0994 31.9309 77.2303 32.3255 77.4476 32.6668C77.6649 33.0081 77.9476 33.28 78.2956 33.4826C78.6545 33.6746 79.0473 33.7706 79.4739 33.7706C79.9646 33.7706 80.3937 33.6479 80.7612 33.4026C81.1393 33.1574 81.4339 32.8214 81.645 32.3948C81.8669 31.9576 81.9833 31.4617 81.9942 30.9071C82.0053 30.3419 81.9137 29.846 81.7194 29.4194C81.536 28.9822 81.2707 28.6409 80.9235 28.3956C80.5763 28.1503 80.1627 28.0277 79.6827 28.0277C79.2134 28.0277 78.7949 28.1557 78.4272 28.4116C78.0595 28.6676 77.7645 29.0248 77.5421 29.4834C77.32 29.9313 77.2031 30.4539 77.1913 31.0511L77.0553 37.9778ZM91.5573 34.8744H90.1013L90.132 33.3067L90.0913 32.9387L90.1497 29.9633C90.1619 29.3448 89.9847 28.8595 89.6183 28.5076C89.2521 28.145 88.7436 27.9637 88.093 27.9637C87.2396 27.9637 86.4861 28.3156 85.8322 29.0195L84.9237 28.0277C85.8695 27.1212 86.9771 26.6679 88.2464 26.6679C88.9504 26.6679 89.5558 26.8012 90.0626 27.0679C90.58 27.3345 90.9779 27.7131 91.2563 28.2036C91.5348 28.6836 91.6676 29.2541 91.6546 29.9153L91.5573 34.8744ZM87.4082 35.1303C86.8429 35.1303 86.3437 35.0237 85.9105 34.8104C85.4882 34.5864 85.1582 34.2825 84.9204 33.8985C84.6826 33.5146 84.5685 33.0774 84.5782 32.5868C84.5943 31.7656 84.9215 31.1257 85.5599 30.6672C86.2091 30.1979 87.0724 29.9633 88.1497 29.9633H90.2937L90.2714 31.0991H88.2714C87.6314 31.0991 87.1276 31.2271 86.7599 31.483C86.403 31.7283 86.2202 32.0749 86.2114 32.5228C86.2035 32.9281 86.3357 33.2587 86.608 33.5146C86.8911 33.7599 87.2727 33.8826 87.7527 33.8826C88.2114 33.8826 88.6241 33.7812 88.9907 33.5786C89.3574 33.376 89.6561 33.0987 89.887 32.7468C90.118 32.3948 90.2539 31.9896 90.2949 31.531L90.7856 31.803C90.7728 32.4535 90.6175 33.0294 90.3196 33.5306C90.0325 34.0319 89.6354 34.4264 89.1284 34.7144C88.6323 34.9917 88.0589 35.1303 87.4082 35.1303ZM96.9527 35.1303C95.6834 35.1303 94.7168 34.6504 94.053 33.6906C93.4001 32.7201 93.0915 31.323 93.1273 29.4994C93.1617 27.7504 93.465 26.428 94.0372 25.5322C94.6202 24.6363 95.5268 24.0924 96.7573 23.9005L100.096 23.3566L100.293 24.7483L96.9693 25.3242C96.4234 25.4202 95.9823 25.6121 95.646 25.9001C95.3099 26.1774 95.0617 26.5933 94.9015 27.1478C94.7413 27.7024 94.6413 28.4489 94.6015 29.3874L94.2395 29.8993C94.3246 29.3661 94.5205 28.8968 94.8271 28.4916C95.1337 28.0863 95.5186 27.7717 95.9816 27.5478C96.4554 27.3238 96.9696 27.2118 97.5242 27.2118C98.2176 27.2118 98.8171 27.3718 99.3228 27.6917C99.8287 28.001 100.215 28.4436 100.481 29.0195C100.758 29.5847 100.888 30.2566 100.873 31.0351C100.857 31.8563 100.683 32.5761 100.351 33.1947C100.029 33.8132 99.5772 34.2931 98.9945 34.6344C98.412 34.965 97.7314 35.1303 96.9527 35.1303ZM96.9318 33.7546C97.6251 33.7546 98.1685 33.5146 98.5619 33.0347C98.966 32.5548 99.176 31.9096 99.1919 31.0991C99.2078 30.2886 99.0387 29.6647 98.6847 29.2274C98.3306 28.7902 97.8229 28.5716 97.1615 28.5716C96.5322 28.5716 95.9893 28.7849 95.533 29.2115C95.0768 29.6274 94.7672 30.1819 94.6043 30.8751L94.4067 30.3472L94.7806 30.0433C94.7693 30.6192 94.7965 31.1364 94.8622 31.595C94.9385 32.0536 95.0588 32.4428 95.2232 32.7628C95.3983 33.0827 95.6228 33.328 95.8968 33.4986C96.1814 33.6693 96.5264 33.7546 96.9318 33.7546ZM105.939 35.1303C105.16 35.1303 104.465 34.949 103.854 34.5864C103.253 34.2238 102.783 33.7226 102.443 33.0827C102.114 32.4428 101.958 31.7176 101.974 30.9071C101.99 30.0859 102.175 29.3554 102.529 28.7155C102.894 28.0757 103.383 27.5744 103.998 27.2118C104.624 26.8492 105.327 26.6679 106.105 26.6679C106.905 26.6679 107.606 26.8492 108.206 27.2118C108.818 27.5744 109.288 28.0757 109.617 28.7155C109.956 29.3554 110.118 30.0806 110.102 30.8911C110.086 31.7123 109.896 32.4428 109.531 33.0827C109.177 33.7226 108.687 34.2238 108.062 34.5864C107.447 34.949 106.739 35.1303 105.939 35.1303ZM105.982 33.7706C106.462 33.7706 106.88 33.6479 107.237 33.4026C107.594 33.1574 107.878 32.8214 108.089 32.3948C108.3 31.9576 108.411 31.4617 108.422 30.9071C108.433 30.3312 108.342 29.8353 108.147 29.4194C107.964 28.9928 107.693 28.6569 107.335 28.4116C106.988 28.1663 106.574 28.0437 106.094 28.0437C105.614 28.0437 105.19 28.1663 104.823 28.4116C104.466 28.6569 104.182 28.9928 103.971 29.4194C103.771 29.8353 103.665 30.3312 103.654 30.9071C103.643 31.4617 103.729 31.9576 103.913 32.3948C104.107 32.8214 104.378 33.1574 104.725 33.4026C105.083 33.6479 105.502 33.7706 105.982 33.7706ZM110.488 28.2516L110.514 26.9239H117.378L117.352 28.2516H110.488ZM112.998 34.8744L113.144 27.4358H114.728L114.582 34.8744H112.998ZM118.485 34.8744L118.641 26.9239H120.241L120.085 34.8744H118.485ZM123.525 34.8744L119.638 30.7472H119.798L123.441 26.9239H125.425L121.44 31.0671L121.215 30.2992L125.621 34.8744H123.525ZM132.159 32.5388L133.083 33.5466C132.656 34.0798 132.152 34.4798 131.571 34.7464C131.001 35.0023 130.38 35.1303 129.708 35.1303C128.876 35.1303 128.149 34.949 127.526 34.5864C126.915 34.2238 126.439 33.7226 126.1 33.0827C125.76 32.4428 125.599 31.7176 125.615 30.9071C125.63 30.0966 125.815 29.3714 126.169 28.7315C126.534 28.0917 127.013 27.5904 127.607 27.2278C128.211 26.8546 128.887 26.6679 129.634 26.6679C130.359 26.6679 130.996 26.8492 131.543 27.2118C132.091 27.5638 132.513 28.0543 132.81 28.6836C133.118 29.3128 133.264 30.0326 133.248 30.8431L133.246 30.9391H131.662L131.665 30.7791C131.682 29.926 131.503 29.2488 131.129 28.7475C130.765 28.2463 130.253 27.9957 129.592 27.9957C129.144 27.9957 128.747 28.113 128.401 28.3476C128.055 28.5822 127.782 28.9182 127.581 29.3554C127.38 29.7927 127.274 30.2992 127.263 30.8751C127.252 31.4617 127.343 31.9736 127.537 32.4108C127.742 32.8374 128.034 33.1787 128.413 33.4346C128.803 33.6799 129.27 33.8026 129.814 33.8026C130.294 33.8026 130.728 33.6959 131.116 33.4826C131.504 33.2693 131.852 32.9547 132.159 32.5388ZM133.236 31.419H126.74L126.763 30.2672H133.019L133.248 30.8431L133.236 31.419Z" fill="white"/>
<path d="M145.433 27.3616C145.469 27.3172 145.514 27.2823 145.565 27.2597C145.615 27.2371 145.67 27.2274 145.725 27.2314C145.78 27.2355 145.833 27.2532 145.881 27.283C145.928 27.3129 145.968 27.354 145.998 27.4033C146.19 27.7255 146.461 27.9844 146.748 28.1895C147.385 28.646 148.148 28.8607 148.915 28.8401L151.033 28.7832C151.212 28.7783 151.295 28.6688 151.318 28.5098C151.331 28.4082 151.319 28.3045 151.281 28.2098C151.244 28.115 151.183 28.0325 151.105 27.9711C150.527 27.5009 150.104 26.8481 149.899 26.1074C149.694 25.3667 149.717 24.5768 149.965 23.8524C150.213 23.128 150.673 22.507 151.277 22.0796C151.882 21.6522 152.6 21.4406 153.327 21.4757C154.857 21.5457 156.149 22.7083 156.506 24.246C156.514 24.2811 156.532 24.3129 156.557 24.3377C156.581 24.3624 156.613 24.3791 156.646 24.3855C157.094 24.4684 157.546 24.5197 158.001 24.539C158.03 24.5404 158.058 24.5494 158.083 24.5652C158.108 24.581 158.129 24.6031 158.144 24.6295C158.16 24.656 158.168 24.686 158.17 24.7168C158.171 24.7477 158.166 24.7785 158.153 24.8064C157.802 25.6121 157.16 26.1959 156.584 26.5868C156.349 26.7454 156.144 26.9507 155.982 27.1914L155.971 27.2081C155.867 27.3645 155.823 27.5571 155.847 27.7471C155.872 27.9371 155.963 28.1104 156.103 28.2323C157.52 29.4969 157.836 30.6855 157.859 31.7088C157.892 33.077 157.211 34.2513 156.117 34.9746C153.494 36.7087 149.866 36.3696 148.141 35.7113C146.82 35.2068 145.552 34.3194 144.971 32.9651C143.781 30.1944 144.754 28.2105 145.433 27.3616ZM154.844 25.0534C154.96 25.0503 155.073 25.0108 155.167 24.94C155.262 24.8691 155.334 24.77 155.376 24.6553C155.417 24.5406 155.425 24.4153 155.399 24.2954C155.374 24.1755 155.315 24.0662 155.23 23.9815C155.146 23.8968 155.04 23.8405 154.926 23.8195C154.811 23.7986 154.694 23.8141 154.588 23.864C154.482 23.9139 154.392 23.996 154.331 24.0999C154.269 24.2038 154.238 24.3249 154.241 24.4478C154.246 24.6126 154.312 24.769 154.425 24.8826C154.538 24.9961 154.689 25.0576 154.844 25.0534Z" fill="white"/>
<path d="M170.611 34.8744L170.835 23.4366H175.219C175.913 23.4366 176.513 23.5645 177.02 23.8205C177.538 24.0658 177.936 24.4124 178.215 24.8603C178.505 25.3082 178.644 25.8361 178.632 26.444C178.621 27.0092 178.462 27.5051 178.155 27.9317C177.859 28.3583 177.447 28.6942 176.919 28.9395C176.403 29.1741 175.798 29.2914 175.104 29.2914H172.512L172.528 28.5076H175.344C176.101 28.5076 176.755 28.6356 177.304 28.8915C177.854 29.1368 178.274 29.4941 178.563 29.9633C178.863 30.4325 179.007 30.9871 178.994 31.627C178.982 32.2669 178.816 32.8321 178.497 33.3227C178.178 33.8132 177.739 34.1972 177.179 34.4744C176.619 34.7411 175.965 34.8744 175.219 34.8744H170.611ZM172.286 33.4666H175.262C175.892 33.4666 176.391 33.296 176.76 32.9547C177.13 32.6135 177.32 32.1496 177.332 31.563C177.343 30.9871 177.171 30.5339 176.814 30.2033C176.458 29.862 175.966 29.6914 175.336 29.6914H172.2L172.228 28.2996H175.06C175.646 28.2996 176.108 28.145 176.445 27.8357C176.782 27.5264 176.955 27.0999 176.966 26.556C176.976 26.0334 176.814 25.6175 176.479 25.3082C176.154 24.9989 175.704 24.8443 175.128 24.8443H172.456L172.286 33.4666ZM185.283 37.9778H183.683L183.9 26.9239H185.484L185.436 29.3554H185.084C185.169 28.8329 185.354 28.3743 185.639 27.9797C185.935 27.5744 186.304 27.2545 186.746 27.0199C187.199 26.7853 187.697 26.6679 188.241 26.6679C188.956 26.6679 189.587 26.8492 190.134 27.2118C190.682 27.5744 191.115 28.0757 191.433 28.7155C191.751 29.3554 191.902 30.0859 191.886 30.9071C191.87 31.7283 191.685 32.4588 191.331 33.0987C190.988 33.7279 190.525 34.2238 189.941 34.5864C189.369 34.949 188.725 35.1303 188.011 35.1303C187.349 35.1303 186.776 34.9863 186.291 34.6984C185.817 34.3998 185.457 33.9999 185.211 33.4986C184.976 32.9867 184.891 32.4162 184.956 31.787L185.282 31.483C185.327 31.9309 185.458 32.3255 185.675 32.6668C185.892 33.0081 186.175 33.28 186.523 33.4826C186.882 33.6746 187.275 33.7706 187.701 33.7706C188.192 33.7706 188.621 33.6479 188.989 33.4026C189.367 33.1574 189.661 32.8214 189.872 32.3948C190.094 31.9576 190.211 31.4617 190.222 30.9071C190.233 30.3419 190.141 29.846 189.947 29.4194C189.764 28.9822 189.498 28.6409 189.151 28.3956C188.804 28.1503 188.39 28.0277 187.91 28.0277C187.441 28.0277 187.022 28.1557 186.655 28.4116C186.287 28.6676 185.992 29.0248 185.77 29.4834C185.548 29.9313 185.431 30.4539 185.419 31.0511L185.283 37.9778ZM199.785 34.8744H198.329L198.36 33.3067L198.319 32.9387L198.377 29.9633C198.389 29.3448 198.212 28.8595 197.846 28.5076C197.48 28.145 196.971 27.9637 196.321 27.9637C195.467 27.9637 194.714 28.3156 194.06 29.0195L193.151 28.0277C194.097 27.1212 195.205 26.6679 196.474 26.6679C197.178 26.6679 197.783 26.8012 198.29 27.0679C198.808 27.3345 199.205 27.7131 199.484 28.2036C199.762 28.6836 199.895 29.2541 199.882 29.9153L199.785 34.8744ZM195.636 35.1303C195.07 35.1303 194.571 35.0237 194.138 34.8104C193.716 34.5864 193.386 34.2825 193.148 33.8985C192.91 33.5146 192.796 33.0774 192.806 32.5868C192.822 31.7656 193.149 31.1257 193.787 30.6672C194.437 30.1979 195.3 29.9633 196.377 29.9633H198.521L198.499 31.0991H196.499C195.859 31.0991 195.355 31.2271 194.987 31.483C194.631 31.7283 194.448 32.0749 194.439 32.5228C194.431 32.9281 194.563 33.2587 194.835 33.5146C195.119 33.7599 195.5 33.8826 195.98 33.8826C196.439 33.8826 196.852 33.7812 197.218 33.5786C197.585 33.376 197.884 33.0987 198.115 32.7468C198.345 32.3948 198.481 31.9896 198.522 31.531L199.013 31.803C199 32.4535 198.845 33.0294 198.547 33.5306C198.26 34.0319 197.863 34.4264 197.356 34.7144C196.86 34.9917 196.286 35.1303 195.636 35.1303ZM204.428 35.1303C202.914 35.1303 201.74 34.6237 200.906 33.6106L201.886 32.6028C202.166 33.0081 202.512 33.312 202.924 33.5146C203.336 33.7066 203.798 33.8026 204.31 33.8026C204.886 33.8026 205.342 33.6906 205.677 33.4666C206.012 33.232 206.184 32.9121 206.192 32.5068C206.206 31.771 205.669 31.403 204.581 31.403H202.997L203.021 30.1873H204.605C205.064 30.1873 205.418 30.0966 205.667 29.9153C205.926 29.734 206.059 29.4781 206.066 29.1475C206.073 28.7849 205.929 28.5023 205.634 28.2996C205.34 28.097 204.936 27.9957 204.424 27.9957C203.475 27.9957 202.705 28.3796 202.114 29.1475L201.189 28.1557C202.073 27.1638 203.176 26.6679 204.498 26.6679C205.138 26.6679 205.697 26.7639 206.173 26.9559C206.649 27.1478 207.017 27.4145 207.277 27.7557C207.548 28.097 207.679 28.4969 207.67 28.9555C207.661 29.4141 207.525 29.798 207.263 30.1073C207.001 30.4166 206.612 30.6512 206.097 30.8111L206.102 30.5392C206.664 30.7098 207.091 30.9711 207.383 31.323C207.675 31.675 207.816 32.0962 207.806 32.5868C207.797 33.0774 207.639 33.5146 207.332 33.8985C207.037 34.2825 206.636 34.5864 206.131 34.8104C205.636 35.0237 205.068 35.1303 204.428 35.1303ZM210.877 37.9778H209.277L209.494 26.9239H211.078L211.03 29.3554H210.678C210.763 28.8329 210.948 28.3743 211.233 27.9797C211.529 27.5744 211.898 27.2545 212.34 27.0199C212.792 26.7853 213.291 26.6679 213.835 26.6679C214.549 26.6679 215.18 26.8492 215.728 27.2118C216.276 27.5744 216.708 28.0757 217.026 28.7155C217.345 29.3554 217.496 30.0859 217.479 30.9071C217.463 31.7283 217.278 32.4588 216.924 33.0987C216.581 33.7279 216.118 34.2238 215.535 34.5864C214.963 34.949 214.319 35.1303 213.605 35.1303C212.943 35.1303 212.37 34.9863 211.885 34.6984C211.411 34.3998 211.051 33.9999 210.805 33.4986C210.569 32.9867 210.484 32.4162 210.55 31.787L210.876 31.483C210.921 31.9309 211.052 32.3255 211.269 32.6668C211.486 33.0081 211.769 33.28 212.117 33.4826C212.476 33.6746 212.869 33.7706 213.295 33.7706C213.786 33.7706 214.215 33.6479 214.582 33.4026C214.961 33.1574 215.255 32.8214 215.466 32.3948C215.688 31.9576 215.805 31.4617 215.815 30.9071C215.827 30.3419 215.735 29.846 215.541 29.4194C215.357 28.9822 215.092 28.6409 214.745 28.3956C214.398 28.1503 213.984 28.0277 213.504 28.0277C213.035 28.0277 212.616 28.1557 212.248 28.4116C211.881 28.6676 211.586 29.0248 211.363 29.4834C211.141 29.9313 211.024 30.4539 211.013 31.0511L210.877 37.9778ZM225.379 34.8744H223.923L223.953 33.3067L223.913 32.9387L223.971 29.9633C223.983 29.3448 223.806 28.8595 223.44 28.5076C223.073 28.145 222.565 27.9637 221.914 27.9637C221.061 27.9637 220.307 28.3156 219.654 29.0195L218.745 28.0277C219.691 27.1212 220.798 26.6679 222.068 26.6679C222.772 26.6679 223.377 26.8012 223.884 27.0679C224.401 27.3345 224.799 27.7131 225.078 28.2036C225.356 28.6836 225.489 29.2541 225.476 29.9153L225.379 34.8744ZM221.23 35.1303C220.664 35.1303 220.165 35.0237 219.732 34.8104C219.31 34.5864 218.98 34.2825 218.742 33.8985C218.504 33.5146 218.39 33.0774 218.399 32.5868C218.416 31.7656 218.743 31.1257 219.381 30.6672C220.03 30.1979 220.894 29.9633 221.971 29.9633H224.115L224.093 31.0991H222.093C221.453 31.0991 220.949 31.2271 220.581 31.483C220.224 31.7283 220.042 32.0749 220.033 32.5228C220.025 32.9281 220.157 33.2587 220.429 33.5146C220.712 33.7599 221.094 33.8826 221.574 33.8826C222.033 33.8826 222.445 33.7812 222.812 33.5786C223.179 33.376 223.477 33.0987 223.708 32.7468C223.939 32.3948 224.075 31.9896 224.116 31.531L224.607 31.803C224.594 32.4535 224.439 33.0294 224.141 33.5306C223.854 34.0319 223.457 34.4264 222.95 34.7144C222.454 34.9917 221.88 35.1303 221.23 35.1303ZM230.774 35.1303C229.505 35.1303 228.538 34.6504 227.874 33.6906C227.221 32.7201 226.913 31.323 226.949 29.4994C226.983 27.7504 227.286 26.428 227.859 25.5322C228.441 24.6363 229.348 24.0924 230.579 23.9005L233.917 23.3566L234.114 24.7483L230.791 25.3242C230.245 25.4202 229.804 25.6121 229.467 25.9001C229.131 26.1774 228.883 26.5933 228.723 27.1478C228.563 27.7024 228.463 28.4489 228.423 29.3874L228.061 29.8993C228.146 29.3661 228.342 28.8968 228.648 28.4916C228.955 28.0863 229.34 27.7717 229.803 27.5478C230.277 27.3238 230.791 27.2118 231.346 27.2118C232.039 27.2118 232.638 27.3718 233.144 27.6917C233.65 28.001 234.036 28.4436 234.302 29.0195C234.579 29.5847 234.71 30.2566 234.694 31.0351C234.678 31.8563 234.504 32.5761 234.172 33.1947C233.851 33.8132 233.398 34.2931 232.816 34.6344C232.233 34.965 231.553 35.1303 230.774 35.1303ZM230.753 33.7546C231.446 33.7546 231.99 33.5146 232.383 33.0347C232.787 32.5548 232.997 31.9096 233.013 31.0991C233.029 30.2886 232.86 29.6647 232.506 29.2274C232.152 28.7902 231.644 28.5716 230.983 28.5716C230.353 28.5716 229.811 28.7849 229.354 29.2115C228.898 29.6274 228.589 30.1819 228.426 30.8751L228.228 30.3472L228.602 30.0433C228.591 30.6192 228.618 31.1364 228.683 31.595C228.76 32.0536 228.88 32.4428 229.045 32.7628C229.22 33.0827 229.444 33.328 229.718 33.4986C230.003 33.6693 230.348 33.7546 230.753 33.7546ZM239.76 35.1303C238.982 35.1303 238.286 34.949 237.675 34.5864C237.074 34.2238 236.604 33.7226 236.264 33.0827C235.936 32.4428 235.779 31.7176 235.795 30.9071C235.811 30.0859 235.996 29.3554 236.35 28.7155C236.715 28.0757 237.205 27.5744 237.82 27.2118C238.446 26.8492 239.148 26.6679 239.926 26.6679C240.726 26.6679 241.427 26.8492 242.028 27.2118C242.639 27.5744 243.109 28.0757 243.438 28.7155C243.778 29.3554 243.939 30.0806 243.924 30.8911C243.907 31.7123 243.717 32.4428 243.352 33.0827C242.999 33.7226 242.509 34.2238 241.883 34.5864C241.268 34.949 240.56 35.1303 239.76 35.1303ZM239.803 33.7706C240.283 33.7706 240.701 33.6479 241.058 33.4026C241.415 33.1574 241.699 32.8214 241.91 32.3948C242.121 31.9576 242.232 31.4617 242.243 30.9071C242.255 30.3312 242.163 29.8353 241.968 29.4194C241.785 28.9928 241.514 28.6569 241.156 28.4116C240.809 28.1663 240.395 28.0437 239.915 28.0437C239.435 28.0437 239.012 28.1663 238.644 28.4116C238.287 28.6569 238.003 28.9928 237.792 29.4194C237.592 29.8353 237.487 30.3312 237.475 30.9071C237.464 31.4617 237.551 31.9576 237.734 32.3948C237.928 32.8214 238.199 33.1574 238.546 33.4026C238.904 33.6479 239.323 33.7706 239.803 33.7706ZM244.309 28.2516L244.335 26.9239H251.199L251.173 28.2516H244.309ZM246.819 34.8744L246.965 27.4358H248.549L248.403 34.8744H246.819ZM252.306 34.8744L252.462 26.9239H254.062L253.906 34.8744H252.306ZM257.346 34.8744L253.459 30.7472H253.619L257.262 26.9239H259.246L255.261 31.0671L255.036 30.2992L259.442 34.8744H257.346ZM265.98 32.5388L266.904 33.5466C266.478 34.0798 265.974 34.4798 265.392 34.7464C264.822 35.0023 264.201 35.1303 263.529 35.1303C262.697 35.1303 261.97 34.949 261.348 34.5864C260.736 34.2238 260.261 33.7226 259.921 33.0827C259.582 32.4428 259.42 31.7176 259.436 30.9071C259.452 30.0966 259.637 29.3714 259.991 28.7315C260.355 28.0917 260.834 27.5904 261.428 27.2278C262.033 26.8546 262.708 26.6679 263.455 26.6679C264.18 26.6679 264.817 26.8492 265.364 27.2118C265.912 27.5638 266.335 28.0543 266.632 28.6836C266.939 29.3128 267.085 30.0326 267.069 30.8431L267.067 30.9391H265.483L265.486 30.7791C265.503 29.926 265.324 29.2488 264.95 28.7475C264.587 28.2463 264.074 27.9957 263.413 27.9957C262.965 27.9957 262.568 28.113 262.222 28.3476C261.876 28.5822 261.603 28.9182 261.402 29.3554C261.202 29.7927 261.096 30.2992 261.084 30.8751C261.073 31.4617 261.164 31.9736 261.358 32.4108C261.563 32.8374 261.855 33.1787 262.234 33.4346C262.624 33.6799 263.091 33.8026 263.635 33.8026C264.115 33.8026 264.549 33.6959 264.937 33.4826C265.325 33.2693 265.673 32.9547 265.98 32.5388ZM267.058 31.419H260.562L260.584 30.2672H266.84L267.069 30.8431L267.058 31.419Z" fill="white"/>
<path d="M279.255 27.3616C279.29 27.3172 279.335 27.2823 279.386 27.2597C279.437 27.2371 279.492 27.2274 279.546 27.2314C279.601 27.2355 279.655 27.2532 279.702 27.283C279.75 27.3129 279.79 27.354 279.819 27.4033C280.012 27.7255 280.283 27.9844 280.569 28.1895C281.206 28.646 281.969 28.8607 282.736 28.8401L284.854 28.7832C285.034 28.7783 285.116 28.6688 285.139 28.5098C285.153 28.4082 285.14 28.3045 285.103 28.2098C285.065 28.115 285.004 28.0325 284.926 27.9711C284.348 27.5009 283.926 26.8481 283.721 26.1074C283.516 25.3667 283.539 24.5768 283.787 23.8524C284.034 23.128 284.494 22.507 285.099 22.0796C285.703 21.6522 286.421 21.4406 287.148 21.4757C288.678 21.5457 289.97 22.7083 290.327 24.246C290.335 24.2811 290.353 24.3129 290.378 24.3377C290.403 24.3624 290.434 24.3791 290.467 24.3855C290.915 24.4684 291.368 24.5197 291.822 24.539C291.851 24.5404 291.879 24.5494 291.904 24.5652C291.93 24.581 291.951 24.6031 291.966 24.6295C291.981 24.656 291.99 24.686 291.991 24.7168C291.993 24.7477 291.987 24.7785 291.975 24.8064C291.623 25.6121 290.982 26.1959 290.406 26.5868C290.17 26.7454 289.966 26.9507 289.804 27.1914L289.792 27.2081C289.688 27.3645 289.644 27.5571 289.669 27.7471C289.693 27.9371 289.785 28.1104 289.924 28.2323C291.341 29.4969 291.657 30.6855 291.68 31.7088C291.713 33.077 291.033 34.2513 289.938 34.9746C287.315 36.7087 283.688 36.3696 281.962 35.7113C280.641 35.2068 279.374 34.3194 278.792 32.9651C277.603 30.1944 278.575 28.2105 279.255 27.3616ZM288.665 25.0534C288.781 25.0503 288.894 25.0108 288.988 24.94C289.083 24.8691 289.156 24.77 289.197 24.6553C289.238 24.5406 289.247 24.4153 289.221 24.2954C289.195 24.1755 289.136 24.0662 289.052 23.9815C288.967 23.8968 288.861 23.8405 288.747 23.8195C288.632 23.7986 288.515 23.8141 288.409 23.864C288.303 23.9139 288.214 23.996 288.152 24.0999C288.09 24.2038 288.059 24.3249 288.062 24.4478C288.067 24.6126 288.133 24.769 288.246 24.8826C288.359 24.9961 288.51 25.0576 288.665 25.0534Z" fill="white"/>
<path d="M304.431 34.8744L304.656 23.4366H309.04C309.733 23.4366 310.333 23.5645 310.84 23.8205C311.358 24.0658 311.756 24.4124 312.036 24.8603C312.326 25.3082 312.464 25.8361 312.453 26.444C312.441 27.0092 312.282 27.5051 311.975 27.9317C311.679 28.3583 311.267 28.6942 310.74 28.9395C310.223 29.1741 309.618 29.2914 308.925 29.2914H306.333L306.348 28.5076H309.164C309.921 28.5076 310.575 28.6356 311.124 28.8915C311.674 29.1368 312.094 29.4941 312.383 29.9633C312.684 30.4325 312.827 30.9871 312.815 31.627C312.802 32.2669 312.636 32.8321 312.317 33.3227C311.998 33.8132 311.559 34.1972 310.999 34.4744C310.439 34.7411 309.786 34.8744 309.039 34.8744H304.431ZM306.107 33.4666H309.083C309.712 33.4666 310.211 33.296 310.581 32.9547C310.95 32.6135 311.14 32.1496 311.152 31.563C311.163 30.9871 310.991 30.5339 310.635 30.2033C310.279 29.862 309.786 29.6914 309.157 29.6914H306.021L306.048 28.2996H308.88C309.467 28.2996 309.928 28.145 310.265 27.8357C310.602 27.5264 310.776 27.0999 310.786 26.556C310.797 26.0334 310.634 25.6175 310.299 25.3082C309.974 24.9989 309.524 24.8443 308.948 24.8443H306.276L306.107 33.4666ZM319.103 37.9778H317.503L317.72 26.9239H319.304L319.256 29.3554H318.904C318.989 28.8329 319.174 28.3743 319.46 27.9797C319.755 27.5744 320.124 27.2545 320.566 27.0199C321.019 26.7853 321.517 26.6679 322.061 26.6679C322.776 26.6679 323.407 26.8492 323.955 27.2118C324.502 27.5744 324.935 28.0757 325.253 28.7155C325.571 29.3554 325.722 30.0859 325.706 30.9071C325.69 31.7283 325.505 32.4588 325.151 33.0987C324.808 33.7279 324.345 34.2238 323.762 34.5864C323.189 34.949 322.546 35.1303 321.831 35.1303C321.17 35.1303 320.597 34.9863 320.112 34.6984C319.637 34.3998 319.277 33.9999 319.031 33.4986C318.796 32.9867 318.711 32.4162 318.777 31.787L319.103 31.483C319.147 31.9309 319.278 32.3255 319.495 32.6668C319.713 33.0081 319.995 33.28 320.343 33.4826C320.702 33.6746 321.095 33.7706 321.522 33.7706C322.012 33.7706 322.442 33.6479 322.809 33.4026C323.187 33.1574 323.482 32.8214 323.693 32.3948C323.915 31.9576 324.031 31.4617 324.042 30.9071C324.053 30.3419 323.962 29.846 323.767 29.4194C323.584 28.9822 323.319 28.6409 322.971 28.3956C322.624 28.1503 322.211 28.0277 321.731 28.0277C321.261 28.0277 320.843 28.1557 320.475 28.4116C320.107 28.6676 319.812 29.0248 319.59 29.4834C319.368 29.9313 319.251 30.4539 319.239 31.0511L319.103 37.9778ZM333.605 34.8744H332.149L332.18 33.3067L332.139 32.9387L332.198 29.9633C332.21 29.3448 332.033 28.8595 331.666 28.5076C331.3 28.145 330.791 27.9637 330.141 27.9637C329.287 27.9637 328.534 28.3156 327.88 29.0195L326.972 28.0277C327.917 27.1212 329.025 26.6679 330.294 26.6679C330.998 26.6679 331.604 26.8012 332.11 27.0679C332.628 27.3345 333.026 27.7131 333.304 28.2036C333.583 28.6836 333.715 29.2541 333.702 29.9153L333.605 34.8744ZM329.456 35.1303C328.891 35.1303 328.392 35.0237 327.958 34.8104C327.536 34.5864 327.206 34.2825 326.968 33.8985C326.73 33.5146 326.616 33.0774 326.626 32.5868C326.642 31.7656 326.969 31.1257 327.608 30.6672C328.257 30.1979 329.12 29.9633 330.198 29.9633H332.342L332.319 31.0991H330.319C329.679 31.0991 329.175 31.2271 328.808 31.483C328.451 31.7283 328.268 32.0749 328.259 32.5228C328.251 32.9281 328.384 33.2587 328.656 33.5146C328.939 33.7599 329.321 33.8826 329.801 33.8826C330.259 33.8826 330.672 33.7812 331.039 33.5786C331.405 33.376 331.704 33.0987 331.935 32.7468C332.166 32.3948 332.302 31.9896 332.343 31.531L332.833 31.803C332.821 32.4535 332.665 33.0294 332.367 33.5306C332.08 34.0319 331.683 34.4264 331.176 34.7144C330.68 34.9917 330.107 35.1303 329.456 35.1303ZM338.249 35.1303C336.734 35.1303 335.56 34.6237 334.726 33.6106L335.706 32.6028C335.986 33.0081 336.332 33.312 336.744 33.5146C337.157 33.7066 337.619 33.8026 338.131 33.8026C338.707 33.8026 339.162 33.6906 339.497 33.4666C339.833 33.232 340.004 32.9121 340.012 32.5068C340.027 31.771 339.49 31.403 338.402 31.403H336.818L336.842 30.1873H338.426C338.884 30.1873 339.238 30.0966 339.487 29.9153C339.747 29.734 339.88 29.4781 339.886 29.1475C339.893 28.7849 339.749 28.5023 339.455 28.2996C339.16 28.097 338.757 27.9957 338.245 27.9957C337.295 27.9957 336.525 28.3796 335.934 29.1475L335.01 28.1557C335.893 27.1638 336.996 26.6679 338.319 26.6679C338.959 26.6679 339.517 26.7639 339.993 26.9559C340.469 27.1478 340.837 27.4145 341.097 27.7557C341.368 28.097 341.499 28.4969 341.49 28.9555C341.481 29.4141 341.345 29.798 341.083 30.1073C340.821 30.4166 340.433 30.6512 339.917 30.8111L339.923 30.5392C340.485 30.7098 340.912 30.9711 341.203 31.323C341.495 31.675 341.636 32.0962 341.627 32.5868C341.617 33.0774 341.459 33.5146 341.153 33.8985C340.857 34.2825 340.457 34.5864 339.951 34.8104C339.456 35.0237 338.889 35.1303 338.249 35.1303ZM344.697 37.9778H343.097L343.314 26.9239H344.898L344.85 29.3554H344.498C344.583 28.8329 344.768 28.3743 345.053 27.9797C345.349 27.5744 345.718 27.2545 346.16 27.0199C346.613 26.7853 347.111 26.6679 347.655 26.6679C348.37 26.6679 349.001 26.8492 349.548 27.2118C350.096 27.5744 350.529 28.0757 350.847 28.7155C351.165 29.3554 351.316 30.0859 351.3 30.9071C351.284 31.7283 351.099 32.4588 350.745 33.0987C350.402 33.7279 349.939 34.2238 349.356 34.5864C348.783 34.949 348.139 35.1303 347.425 35.1303C346.763 35.1303 346.19 34.9863 345.705 34.6984C345.231 34.3998 344.871 33.9999 344.625 33.4986C344.39 32.9867 344.305 32.4162 344.37 31.787L344.696 31.483C344.741 31.9309 344.872 32.3255 345.089 32.6668C345.307 33.0081 345.589 33.28 345.937 33.4826C346.296 33.6746 346.689 33.7706 347.116 33.7706C347.606 33.7706 348.035 33.6479 348.403 33.4026C348.781 33.1574 349.076 32.8214 349.287 32.3948C349.508 31.9576 349.625 31.4617 349.636 30.9071C349.647 30.3419 349.555 29.846 349.361 29.4194C349.178 28.9822 348.912 28.6409 348.565 28.3956C348.218 28.1503 347.804 28.0277 347.324 28.0277C346.855 28.0277 346.436 28.1557 346.069 28.4116C345.701 28.6676 345.406 29.0248 345.184 29.4834C344.962 29.9313 344.845 30.4539 344.833 31.0511L344.697 37.9778ZM359.199 34.8744H357.743L357.774 33.3067L357.733 32.9387L357.791 29.9633C357.803 29.3448 357.626 28.8595 357.26 28.5076C356.894 28.145 356.385 27.9637 355.735 27.9637C354.881 27.9637 354.128 28.3156 353.474 29.0195L352.565 28.0277C353.511 27.1212 354.619 26.6679 355.888 26.6679C356.592 26.6679 357.197 26.8012 357.704 27.0679C358.222 27.3345 358.619 27.7131 358.898 28.2036C359.176 28.6836 359.309 29.2541 359.296 29.9153L359.199 34.8744ZM355.05 35.1303C354.484 35.1303 353.985 35.0237 353.552 34.8104C353.13 34.5864 352.8 34.2825 352.562 33.8985C352.324 33.5146 352.21 33.0774 352.22 32.5868C352.236 31.7656 352.563 31.1257 353.201 30.6672C353.851 30.1979 354.714 29.9633 355.791 29.9633H357.935L357.913 31.0991H355.913C355.273 31.0991 354.769 31.2271 354.401 31.483C354.045 31.7283 353.862 32.0749 353.853 32.5228C353.845 32.9281 353.977 33.2587 354.25 33.5146C354.533 33.7599 354.914 33.8826 355.394 33.8826C355.853 33.8826 356.266 33.7812 356.632 33.5786C356.999 33.376 357.298 33.0987 357.529 32.7468C357.76 32.3948 357.896 31.9896 357.937 31.531L358.427 31.803C358.414 32.4535 358.259 33.0294 357.961 33.5306C357.674 34.0319 357.277 34.4264 356.77 34.7144C356.274 34.9917 355.7 35.1303 355.05 35.1303ZM364.594 35.1303C363.325 35.1303 362.358 34.6504 361.695 33.6906C361.042 32.7201 360.733 31.323 360.769 29.4994C360.803 27.7504 361.107 26.428 361.679 25.5322C362.262 24.6363 363.168 24.0924 364.399 23.9005L367.738 23.3566L367.934 24.7483L364.611 25.3242C364.065 25.4202 363.624 25.6121 363.288 25.9001C362.951 26.1774 362.703 26.5933 362.543 27.1478C362.383 27.7024 362.283 28.4489 362.243 29.3874L361.881 29.8993C361.966 29.3661 362.162 28.8968 362.469 28.4916C362.775 28.0863 363.16 27.7717 363.623 27.5478C364.097 27.3238 364.611 27.2118 365.166 27.2118C365.859 27.2118 366.459 27.3718 366.964 27.6917C367.47 28.001 367.856 28.4436 368.122 29.0195C368.399 29.5847 368.53 30.2566 368.515 31.0351C368.499 31.8563 368.324 32.5761 367.992 33.1947C367.671 33.8132 367.219 34.2931 366.636 34.6344C366.054 34.965 365.373 35.1303 364.594 35.1303ZM364.573 33.7546C365.267 33.7546 365.81 33.5146 366.203 33.0347C366.608 32.5548 366.818 31.9096 366.834 31.0991C366.849 30.2886 366.68 29.6647 366.326 29.2274C365.972 28.7902 365.464 28.5716 364.803 28.5716C364.174 28.5716 363.631 28.7849 363.175 29.2115C362.718 29.6274 362.409 30.1819 362.246 30.8751L362.048 30.3472L362.422 30.0433C362.411 30.6192 362.438 31.1364 362.504 31.595C362.58 32.0536 362.7 32.4428 362.865 32.7628C363.04 33.0827 363.264 33.328 363.538 33.4986C363.823 33.6693 364.168 33.7546 364.573 33.7546ZM373.581 35.1303C372.802 35.1303 372.107 34.949 371.495 34.5864C370.894 34.2238 370.424 33.7226 370.085 33.0827C369.756 32.4428 369.6 31.7176 369.616 30.9071C369.632 30.0859 369.817 29.3554 370.171 28.7155C370.535 28.0757 371.025 27.5744 371.64 27.2118C372.266 26.8492 372.968 26.6679 373.747 26.6679C374.547 26.6679 375.247 26.8492 375.848 27.2118C376.46 27.5744 376.93 28.0757 377.259 28.7155C377.598 29.3554 377.76 30.0806 377.744 30.8911C377.728 31.7123 377.537 32.4428 377.173 33.0827C376.819 33.7226 376.329 34.2238 375.703 34.5864C375.088 34.949 374.381 35.1303 373.581 35.1303ZM373.623 33.7706C374.103 33.7706 374.522 33.6479 374.879 33.4026C375.235 33.1574 375.519 32.8214 375.73 32.3948C375.942 31.9576 376.053 31.4617 376.064 30.9071C376.075 30.3312 375.983 29.8353 375.789 29.4194C375.605 28.9928 375.334 28.6569 374.977 28.4116C374.629 28.1663 374.216 28.0437 373.736 28.0437C373.256 28.0437 372.832 28.1663 372.465 28.4116C372.108 28.6569 371.824 28.9928 371.613 29.4194C371.413 29.8353 371.307 30.3312 371.296 30.9071C371.285 31.4617 371.371 31.9576 371.554 32.3948C371.749 32.8214 372.019 33.1574 372.367 33.4026C372.724 33.6479 373.143 33.7706 373.623 33.7706ZM378.129 28.2516L378.155 26.9239H385.019L384.993 28.2516H378.129ZM380.639 34.8744L380.785 27.4358H382.369L382.223 34.8744H380.639ZM386.127 34.8744L386.283 26.9239H387.883L387.727 34.8744H386.127ZM391.167 34.8744L387.28 30.7472H387.44L391.083 26.9239H393.067L389.081 31.0671L388.856 30.2992L393.263 34.8744H391.167ZM399.8 32.5388L400.724 33.5466C400.298 34.0798 399.794 34.4798 399.213 34.7464C398.642 35.0023 398.021 35.1303 397.349 35.1303C396.517 35.1303 395.79 34.949 395.168 34.5864C394.556 34.2238 394.081 33.7226 393.741 33.0827C393.402 32.4428 393.24 31.7176 393.256 30.9071C393.272 30.0966 393.457 29.3714 393.811 28.7315C394.175 28.0917 394.655 27.5904 395.248 27.2278C395.853 26.8546 396.529 26.6679 397.275 26.6679C398.001 26.6679 398.637 26.8492 399.185 27.2118C399.732 27.5638 400.155 28.0543 400.452 28.6836C400.759 29.3128 400.905 30.0326 400.889 30.8431L400.888 30.9391H399.304L399.307 30.7791C399.323 29.926 399.145 29.2488 398.771 28.7475C398.407 28.2463 397.895 27.9957 397.233 27.9957C396.785 27.9957 396.388 28.113 396.042 28.3476C395.696 28.5822 395.423 28.9182 395.223 29.3554C395.022 29.7927 394.916 30.2992 394.905 30.8751C394.893 31.4617 394.985 31.9736 395.179 32.4108C395.384 32.8374 395.676 33.1787 396.055 33.4346C396.444 33.6799 396.911 33.8026 397.455 33.8026C397.935 33.8026 398.369 33.6959 398.758 33.4826C399.146 33.2693 399.493 32.9547 399.8 32.5388ZM400.878 31.419H394.382L394.405 30.2672H400.661L400.889 30.8431L400.878 31.419Z" fill="white"/>
<path d="M413.075 27.3616C413.11 27.3172 413.155 27.2823 413.206 27.2597C413.257 27.2371 413.312 27.2274 413.367 27.2314C413.422 27.2355 413.475 27.2532 413.522 27.283C413.57 27.3129 413.61 27.354 413.64 27.4033C413.832 27.7255 414.103 27.9844 414.389 28.1895C415.027 28.646 415.789 28.8607 416.556 28.8401L418.674 28.7832C418.854 28.7783 418.936 28.6688 418.96 28.5098C418.973 28.4082 418.96 28.3045 418.923 28.2098C418.885 28.115 418.825 28.0325 418.747 27.9711C418.168 27.5009 417.746 26.8481 417.541 26.1074C417.336 25.3667 417.359 24.5768 417.607 23.8524C417.855 23.128 418.314 22.507 418.919 22.0796C419.523 21.6522 420.242 21.4406 420.969 21.4757C422.499 21.5457 423.79 22.7083 424.147 24.246C424.156 24.2811 424.173 24.3129 424.198 24.3377C424.223 24.3624 424.254 24.3791 424.288 24.3855C424.736 24.4684 425.188 24.5197 425.642 24.539C425.671 24.5404 425.7 24.5494 425.725 24.5652C425.75 24.581 425.771 24.6031 425.786 24.6295C425.801 24.656 425.81 24.686 425.811 24.7168C425.813 24.7477 425.807 24.7785 425.795 24.8064C425.443 25.6121 424.802 26.1959 424.226 26.5868C423.99 26.7454 423.786 26.9507 423.624 27.1914L423.613 27.2081C423.509 27.3645 423.464 27.5571 423.489 27.7471C423.513 27.9371 423.605 28.1104 423.745 28.2323C425.162 29.4969 425.477 30.6855 425.501 31.7088C425.534 33.077 424.853 34.2513 423.759 34.9746C421.135 36.7087 417.508 36.3696 415.783 35.7113C414.462 35.2068 413.194 34.3194 412.613 32.9651C411.423 30.1944 412.396 28.2105 413.075 27.3616ZM422.486 25.0534C422.602 25.0503 422.714 25.0108 422.809 24.94C422.903 24.8691 422.976 24.77 423.017 24.6553C423.059 24.5406 423.067 24.4153 423.041 24.2954C423.015 24.1755 422.956 24.0662 422.872 23.9815C422.788 23.8968 422.682 23.8405 422.567 23.8195C422.453 23.7986 422.335 23.8141 422.229 23.864C422.123 23.9139 422.034 23.996 421.972 24.0999C421.911 24.2038 421.879 24.3249 421.883 24.4478C421.887 24.6126 421.953 24.769 422.066 24.8826C422.179 24.9961 422.33 25.0576 422.486 25.0534Z" fill="white"/>
<path d="M438.252 34.8744L438.477 23.4366H442.861C443.554 23.4366 444.154 23.5645 444.661 23.8205C445.179 24.0658 445.578 24.4124 445.857 24.8603C446.147 25.3082 446.286 25.8361 446.274 26.444C446.263 27.0092 446.104 27.5051 445.797 27.9317C445.5 28.3583 445.088 28.6942 444.561 28.9395C444.044 29.1741 443.439 29.2914 442.746 29.2914H440.154L440.169 28.5076H442.985C443.743 28.5076 444.396 28.6356 444.946 28.8915C445.496 29.1368 445.915 29.4941 446.205 29.9633C446.505 30.4325 446.649 30.9871 446.636 31.627C446.623 32.2669 446.458 32.8321 446.139 33.3227C445.82 33.8132 445.38 34.1972 444.82 34.4744C444.26 34.7411 443.607 34.8744 442.86 34.8744H438.252ZM439.928 33.4666H442.904C443.533 33.4666 444.033 33.296 444.402 32.9547C444.771 32.6135 444.962 32.1496 444.973 31.563C444.985 30.9871 444.812 30.5339 444.456 30.2033C444.1 29.862 443.607 29.6914 442.978 29.6914H439.842L439.869 28.2996H442.701C443.288 28.2996 443.75 28.145 444.086 27.8357C444.423 27.5264 444.597 27.0999 444.608 26.556C444.618 26.0334 444.455 25.6175 444.12 25.3082C443.796 24.9989 443.345 24.8443 442.769 24.8443H440.097L439.928 33.4666ZM452.924 37.9778H451.324L451.542 26.9239H453.126L453.078 29.3554H452.726C452.811 28.8329 452.996 28.3743 453.281 27.9797C453.577 27.5744 453.946 27.2545 454.388 27.0199C454.84 26.7853 455.339 26.6679 455.883 26.6679C456.597 26.6679 457.228 26.8492 457.776 27.2118C458.323 27.5744 458.756 28.0757 459.074 28.7155C459.392 29.3554 459.543 30.0859 459.527 30.9071C459.511 31.7283 459.326 32.4588 458.972 33.0987C458.629 33.7279 458.166 34.2238 457.583 34.5864C457.011 34.949 456.367 35.1303 455.652 35.1303C454.991 35.1303 454.418 34.9863 453.933 34.6984C453.459 34.3998 453.099 33.9999 452.852 33.4986C452.617 32.9867 452.532 32.4162 452.598 31.787L452.924 31.483C452.969 31.9309 453.099 32.3255 453.317 32.6668C453.534 33.0081 453.817 33.28 454.165 33.4826C454.524 33.6746 454.916 33.7706 455.343 33.7706C455.834 33.7706 456.263 33.6479 456.63 33.4026C457.008 33.1574 457.303 32.8214 457.514 32.3948C457.736 31.9576 457.852 31.4617 457.863 30.9071C457.874 30.3419 457.783 29.846 457.589 29.4194C457.405 28.9822 457.14 28.6409 456.793 28.3956C456.445 28.1503 456.032 28.0277 455.552 28.0277C455.083 28.0277 454.664 28.1557 454.296 28.4116C453.929 28.6676 453.634 29.0248 453.411 29.4834C453.189 29.9313 453.072 30.4539 453.06 31.0511L452.924 37.9778ZM467.426 34.8744H465.97L466.001 33.3067L465.96 32.9387L466.019 29.9633C466.031 29.3448 465.854 28.8595 465.487 28.5076C465.121 28.145 464.613 27.9637 463.962 27.9637C463.109 27.9637 462.355 28.3156 461.701 29.0195L460.793 28.0277C461.739 27.1212 462.846 26.6679 464.116 26.6679C464.82 26.6679 465.425 26.8012 465.932 27.0679C466.449 27.3345 466.847 27.7131 467.125 28.2036C467.404 28.6836 467.537 29.2541 467.524 29.9153L467.426 34.8744ZM463.277 35.1303C462.712 35.1303 462.213 35.0237 461.78 34.8104C461.357 34.5864 461.027 34.2825 460.79 33.8985C460.552 33.5146 460.438 33.0774 460.447 32.5868C460.463 31.7656 460.791 31.1257 461.429 30.6672C462.078 30.1979 462.942 29.9633 464.019 29.9633H466.163L466.141 31.0991H464.141C463.501 31.0991 462.997 31.2271 462.629 31.483C462.272 31.7283 462.089 32.0749 462.081 32.5228C462.073 32.9281 462.205 33.2587 462.477 33.5146C462.76 33.7599 463.142 33.8826 463.622 33.8826C464.081 33.8826 464.493 33.7812 464.86 33.5786C465.226 33.376 465.525 33.0987 465.756 32.7468C465.987 32.3948 466.123 31.9896 466.164 31.531L466.655 31.803C466.642 32.4535 466.487 33.0294 466.189 33.5306C465.902 34.0319 465.505 34.4264 464.998 34.7144C464.501 34.9917 463.928 35.1303 463.277 35.1303ZM472.07 35.1303C470.555 35.1303 469.381 34.6237 468.548 33.6106L469.528 32.6028C469.808 33.0081 470.154 33.312 470.566 33.5146C470.978 33.7066 471.44 33.8026 471.952 33.8026C472.528 33.8026 472.983 33.6906 473.319 33.4666C473.654 33.232 473.825 32.9121 473.833 32.5068C473.848 31.771 473.311 31.403 472.223 31.403H470.639L470.663 30.1873H472.247C472.706 30.1873 473.059 30.0966 473.308 29.9153C473.568 29.734 473.701 29.4781 473.707 29.1475C473.714 28.7849 473.571 28.5023 473.276 28.2996C472.981 28.097 472.578 27.9957 472.066 27.9957C471.117 27.9957 470.346 28.3796 469.755 29.1475L468.831 28.1557C469.714 27.1638 470.817 26.6679 472.14 26.6679C472.78 26.6679 473.338 26.7639 473.814 26.9559C474.291 27.1478 474.659 27.4145 474.919 27.7557C475.189 28.097 475.32 28.4969 475.311 28.9555C475.302 29.4141 475.167 29.798 474.905 30.1073C474.642 30.4166 474.254 30.6512 473.739 30.8111L473.744 30.5392C474.306 30.7098 474.733 30.9711 475.025 31.323C475.316 31.675 475.457 32.0962 475.448 32.5868C475.438 33.0774 475.28 33.5146 474.974 33.8985C474.679 34.2825 474.278 34.5864 473.772 34.8104C473.277 35.0237 472.71 35.1303 472.07 35.1303ZM478.518 37.9778H476.918L477.135 26.9239H478.719L478.672 29.3554H478.32C478.404 28.8329 478.589 28.3743 478.875 27.9797C479.171 27.5744 479.539 27.2545 479.981 27.0199C480.434 26.7853 480.932 26.6679 481.476 26.6679C482.191 26.6679 482.822 26.8492 483.37 27.2118C483.917 27.5744 484.35 28.0757 484.668 28.7155C484.986 29.3554 485.137 30.0859 485.121 30.9071C485.105 31.7283 484.92 32.4588 484.566 33.0987C484.223 33.7279 483.76 34.2238 483.177 34.5864C482.604 34.949 481.961 35.1303 481.246 35.1303C480.585 35.1303 480.012 34.9863 479.527 34.6984C479.052 34.3998 478.692 33.9999 478.446 33.4986C478.211 32.9867 478.126 32.4162 478.192 31.787L478.518 31.483C478.562 31.9309 478.693 32.3255 478.911 32.6668C479.128 33.0081 479.41 33.28 479.758 33.4826C480.117 33.6746 480.51 33.7706 480.937 33.7706C481.427 33.7706 481.857 33.6479 482.224 33.4026C482.602 33.1574 482.897 32.8214 483.108 32.3948C483.33 31.9576 483.446 31.4617 483.457 30.9071C483.468 30.3419 483.377 29.846 483.182 29.4194C482.999 28.9822 482.734 28.6409 482.386 28.3956C482.039 28.1503 481.626 28.0277 481.146 28.0277C480.676 28.0277 480.258 28.1557 479.89 28.4116C479.522 28.6676 479.227 29.0248 479.005 29.4834C478.783 29.9313 478.666 30.4539 478.654 31.0511L478.518 37.9778ZM493.02 34.8744H491.564L491.595 33.3067L491.554 32.9387L491.613 29.9633C491.625 29.3448 491.448 28.8595 491.081 28.5076C490.715 28.145 490.207 27.9637 489.556 27.9637C488.703 27.9637 487.949 28.3156 487.295 29.0195L486.387 28.0277C487.332 27.1212 488.44 26.6679 489.709 26.6679C490.413 26.6679 491.019 26.8012 491.525 27.0679C492.043 27.3345 492.441 27.7131 492.719 28.2036C492.998 28.6836 493.131 29.2541 493.118 29.9153L493.02 34.8744ZM488.871 35.1303C488.306 35.1303 487.807 35.0237 487.373 34.8104C486.951 34.5864 486.621 34.2825 486.383 33.8985C486.146 33.5146 486.031 33.0774 486.041 32.5868C486.057 31.7656 486.384 31.1257 487.023 30.6672C487.672 30.1979 488.535 29.9633 489.613 29.9633H491.757L491.734 31.0991H489.734C489.094 31.0991 488.59 31.2271 488.223 31.483C487.866 31.7283 487.683 32.0749 487.674 32.5228C487.666 32.9281 487.799 33.2587 488.071 33.5146C488.354 33.7599 488.736 33.8826 489.216 33.8826C489.674 33.8826 490.087 33.7812 490.454 33.5786C490.82 33.376 491.119 33.0987 491.35 32.7468C491.581 32.3948 491.717 31.9896 491.758 31.531L492.248 31.803C492.236 32.4535 492.08 33.0294 491.783 33.5306C491.495 34.0319 491.098 34.4264 490.591 34.7144C490.095 34.9917 489.522 35.1303 488.871 35.1303ZM498.416 35.1303C497.146 35.1303 496.18 34.6504 495.516 33.6906C494.863 32.7201 494.554 31.323 494.59 29.4994C494.625 27.7504 494.928 26.428 495.5 25.5322C496.083 24.6363 496.99 24.0924 498.22 23.9005L501.559 23.3566L501.756 24.7483L498.432 25.3242C497.886 25.4202 497.445 25.6121 497.109 25.9001C496.773 26.1774 496.525 26.5933 496.364 27.1478C496.204 27.7024 496.104 28.4489 496.064 29.3874L495.702 29.8993C495.787 29.3661 495.983 28.8968 496.29 28.4916C496.597 28.0863 496.981 27.7717 497.445 27.5478C497.918 27.3238 498.432 27.2118 498.987 27.2118C499.68 27.2118 500.28 27.3718 500.786 27.6917C501.292 28.001 501.678 28.4436 501.944 29.0195C502.221 29.5847 502.351 30.2566 502.336 31.0351C502.32 31.8563 502.146 32.5761 501.814 33.1947C501.492 33.8132 501.04 34.2931 500.457 34.6344C499.875 34.965 499.194 35.1303 498.416 35.1303ZM498.395 33.7546C499.088 33.7546 499.631 33.5146 500.025 33.0347C500.429 32.5548 500.639 31.9096 500.655 31.0991C500.671 30.2886 500.502 29.6647 500.148 29.2274C499.793 28.7902 499.286 28.5716 498.624 28.5716C497.995 28.5716 497.452 28.7849 496.996 29.2115C496.54 29.6274 496.23 30.1819 496.067 30.8751L495.87 30.3472L496.244 30.0433C496.232 30.6192 496.259 31.1364 496.325 31.595C496.401 32.0536 496.522 32.4428 496.686 32.7628C496.861 33.0827 497.086 33.328 497.36 33.4986C497.644 33.6693 497.989 33.7546 498.395 33.7546ZM507.402 35.1303C506.623 35.1303 505.928 34.949 505.317 34.5864C504.716 34.2238 504.246 33.7226 503.906 33.0827C503.577 32.4428 503.421 31.7176 503.437 30.9071C503.453 30.0859 503.638 29.3554 503.992 28.7155C504.356 28.0757 504.846 27.5744 505.461 27.2118C506.087 26.8492 506.789 26.6679 507.568 26.6679C508.368 26.6679 509.069 26.8492 509.669 27.2118C510.281 27.5744 510.751 28.0757 511.08 28.7155C511.419 29.3554 511.581 30.0806 511.565 30.8911C511.549 31.7123 511.359 32.4428 510.994 33.0827C510.64 33.7226 510.15 34.2238 509.525 34.5864C508.909 34.949 508.202 35.1303 507.402 35.1303ZM507.445 33.7706C507.925 33.7706 508.343 33.6479 508.7 33.4026C509.057 33.1574 509.341 32.8214 509.552 32.3948C509.763 31.9576 509.874 31.4617 509.885 30.9071C509.896 30.3312 509.805 29.8353 509.61 29.4194C509.426 28.9928 509.156 28.6569 508.798 28.4116C508.451 28.1663 508.037 28.0437 507.557 28.0437C507.077 28.0437 506.653 28.1663 506.286 28.4116C505.929 28.6569 505.645 28.9928 505.434 29.4194C505.234 29.8353 505.128 30.3312 505.117 30.9071C505.106 31.4617 505.192 31.9576 505.376 32.3948C505.57 32.8214 505.841 33.1574 506.188 33.4026C506.546 33.6479 506.965 33.7706 507.445 33.7706ZM511.951 28.2516L511.977 26.9239H518.841L518.815 28.2516H511.951ZM514.461 34.8744L514.607 27.4358H516.191L516.045 34.8744H514.461ZM519.948 34.8744L520.104 26.9239H521.704L521.548 34.8744H519.948ZM524.988 34.8744L521.101 30.7472H521.261L524.904 26.9239H526.888L522.903 31.0671L522.678 30.2992L527.084 34.8744H524.988ZM533.621 32.5388L534.546 33.5466C534.119 34.0798 533.615 34.4798 533.034 34.7464C532.464 35.0023 531.843 35.1303 531.171 35.1303C530.339 35.1303 529.611 34.949 528.989 34.5864C528.378 34.2238 527.902 33.7226 527.563 33.0827C527.223 32.4428 527.062 31.7176 527.077 30.9071C527.093 30.0966 527.278 29.3714 527.632 28.7315C527.997 28.0917 528.476 27.5904 529.07 27.2278C529.674 26.8546 530.35 26.6679 531.097 26.6679C531.822 26.6679 532.458 26.8492 533.006 27.2118C533.554 27.5638 533.976 28.0543 534.273 28.6836C534.581 29.3128 534.727 30.0326 534.711 30.8431L534.709 30.9391H533.125L533.128 30.7791C533.145 29.926 532.966 29.2488 532.592 28.7475C532.228 28.2463 531.716 27.9957 531.055 27.9957C530.607 27.9957 530.21 28.113 529.864 28.3476C529.518 28.5822 529.244 28.9182 529.044 29.3554C528.843 29.7927 528.737 30.2992 528.726 30.8751C528.715 31.4617 528.806 31.9736 529 32.4108C529.205 32.8374 529.497 33.1787 529.876 33.4346C530.266 33.6799 530.733 33.8026 531.277 33.8026C531.757 33.8026 532.191 33.6959 532.579 33.4826C532.967 33.2693 533.315 32.9547 533.621 32.5388ZM534.699 31.419H528.203L528.226 30.2672H534.482L534.711 30.8431L534.699 31.419Z" fill="white"/>
</g>
<defs>
<filter id="filter0_dddd_9001_5734" x="-0.0117188" y="0.878418" width="555.994" height="75.0088" filterUnits="userSpaceOnUse" color-interpolation-filters="sRGB">
<feFlood flood-opacity="0" result="BackgroundImageFix"/>
<feColorMatrix in="SourceAlpha" type="matrix" values="0 0 0 0 0 0 0 0 0 0 0 0 0 0 0 0 0 0 127 0" result="hardAlpha"/>
<feOffset dy="10"/>
<feGaussianBlur stdDeviation="10"/>
<feComposite in2="hardAlpha" operator="out"/>
<feColorMatrix type="matrix" values="0 0 0 0 0 0 0 0 0 0 0 0 0 0 0 0 0 0 0.04 0"/>
<feBlend mode="normal" in2="BackgroundImageFix" result="effect1_dropShadow_9001_5734"/>
<feColorMatrix in="SourceAlpha" type="matrix" values="0 0 0 0 0 0 0 0 0 0 0 0 0 0 0 0 0 0 127 0" result="hardAlpha"/>
<feOffset dy="2"/>
<feGaussianBlur stdDeviation="3"/>
<feComposite in2="hardAlpha" operator="out"/>
<feColorMatrix type="matrix" values="0 0 0 0 0 0 0 0 0 0 0 0 0 0 0 0 0 0 0.04 0"/>
<feBlend mode="normal" in2="effect1_dropShadow_9001_5734" result="effect2_dropShadow_9001_5734"/>
<feColorMatrix in="SourceAlpha" type="matrix" values="0 0 0 0 0 0 0 0 0 0 0 0 0 0 0 0 0 0 127 0" result="hardAlpha"/>
<feOffset/>
<feGaussianBlur stdDeviation="0.5"/>
<feComposite in2="hardAlpha" operator="out"/>
<feColorMatrix type="matrix" values="0 0 0 0 0 0 0 0 0 0 0 0 0 0 0 0 0 0 0.04 0"/>
<feBlend mode="normal" in2="effect2_dropShadow_9001_5734" result="effect3_dropShadow_9001_5734"/>
<feColorMatrix in="SourceAlpha" type="matrix" values="0 0 0 0 0 0 0 0 0 0 0 0 0 0 0 0 0 0 127 0" result="hardAlpha"/>
<feOffset dx="2" dy="4"/>
<feGaussianBlur stdDeviation="8"/>
<feComposite in2="hardAlpha" operator="out"/>
<feColorMatrix type="matrix" values="0 0 0 0 0 0 0 0 0 0 0 0 0 0 0 0 0 0 0.13 0"/>
<feBlend mode="normal" in2="effect3_dropShadow_9001_5734" result="effect4_dropShadow_9001_5734"/>
<feBlend mode="normal" in="SourceGraphic" in2="effect4_dropShadow_9001_5734" result="shape"/>
</filter>
<linearGradient id="paint0_linear_9001_5734" x1="-1.48265e-06" y1="29.4777" x2="185.364" y2="-213.708" gradientUnits="userSpaceOnUse">
<stop stop-color="#2093FE"/>
<stop offset="1" stop-color="#C217FE"/>
</linearGradient>
</defs>
</svg>
