<svg width="52" height="52" viewBox="0 0 52 52" fill="none" xmlns="http://www.w3.org/2000/svg">
<rect x="0.5" y="0.5" width="51" height="51" rx="11.5" fill="white"/>
<rect x="0.5" y="0.5" width="51" height="51" rx="11.5" stroke="#ACAEB2" stroke-dasharray="3 3"/>
<g clip-path="url(#clip0_1464_6607)">
<path d="M21.416 31.5001C20.2723 31.5001 19.1754 31.0655 18.3666 30.2919C17.5579 29.5183 17.1035 28.4691 17.1035 27.3751C17.1035 26.2811 17.5579 25.2319 18.3666 24.4583C19.1754 23.6847 20.2723 23.2501 21.416 23.2501C21.6861 22.0467 22.4764 20.9891 23.6129 20.3101C24.1756 19.9739 24.8064 19.7407 25.4693 19.6239C26.1322 19.5071 26.8141 19.5089 27.4762 19.6293C28.1383 19.7496 28.7675 19.9862 29.328 20.3255C29.8885 20.6647 30.3693 21.1 30.7429 21.6064C31.1165 22.1129 31.3755 22.6806 31.5053 23.2772C31.6351 23.8738 31.6331 24.4876 31.4993 25.0834H32.416C33.2669 25.0834 34.083 25.4215 34.6847 26.0231C35.2863 26.6248 35.6243 27.4409 35.6243 28.2918C35.6243 29.1427 35.2863 29.9587 34.6847 30.5604C34.083 31.1621 33.2669 31.5001 32.416 31.5001H31.4993" stroke="#86888E" stroke-width="1.5" stroke-linecap="round" stroke-linejoin="round"/>
<path d="M23.25 28.75L26 26L28.75 28.75" stroke="#86888E" stroke-width="1.5" stroke-linecap="round" stroke-linejoin="round"/>
<path d="M26 26V34.25" stroke="#86888E" stroke-width="1.5" stroke-linecap="round" stroke-linejoin="round"/>
</g>
<defs>
<clipPath id="clip0_1464_6607">
<rect width="22" height="22" fill="white" transform="translate(15 15)"/>
</clipPath>
</defs>
</svg>
